<svg xmlns="http://www.w3.org/2000/svg" width="109" height="32" viewBox="0 0 109 32" xmlns:xlink="http://www.w3.org/1999/xlink">
  <defs>
    <ellipse id="a" cx="7.746" cy="25.881" rx="7.547" ry="2.987"/>
    <mask id="e" width="15.094" height="5.974" x="0" y="0" fill="white">
      <use xlink:href="#a"/>
    </mask>
    <ellipse id="b" cx="7.746" cy="25.881" rx="7.547" ry="2.987"/>
    <mask id="f" width="15.094" height="5.974" x="0" y="0" fill="white">
      <use xlink:href="#b"/>
    </mask>
    <ellipse id="c" cx="7.746" cy="25.881" rx="7.547" ry="2.987"/>
    <mask id="g" width="15.094" height="5.974" x="0" y="0" fill="white">
      <use xlink:href="#c"/>
    </mask>
    <ellipse id="d" cx="7.746" cy="25.881" rx="7.547" ry="2.987"/>
    <mask id="h" width="15.094" height="5.974" x="0" y="0" fill="white">
      <use xlink:href="#d"/>
    </mask>
  </defs>
  <g fill="none" fill-rule="evenodd">
    <g transform="translate(5 1)">
      <path fill="#242424" stroke="#000000" d="M5.48776411,15.6097076 C5.48776411,15.6097076 6.27768563,8.5500374 6.33246794,7.12385504 C6.22204352,6.17757057 4.68248881,5.62950187 4.73014696,4.10702057 C4.67032861,1.31214043 6.43441707,0.680424305 7.64380399,0.697989035 C8.81547963,0.680424305 10.5795681,1.31214043 10.5197497,4.10702057 C10.5674079,5.62950187 9.02785318,6.17757057 8.91742876,7.12385504 C8.97221106,8.5500374 9.76213258,15.6097076 9.76213258,15.6097076 L5.48776411,15.6097076 Z" stroke-linecap="round" stroke-linejoin="round"/>
      <path fill="#D6C819" stroke="#776E00" d="M14.8056358,25.8284345 C12.3786221,24.1107423 13.3281097,18.4976705 12.4541164,15.7512673 C11.5801231,13.004864 7.91446151,13.1149758 7.91446151,13.1149758 C7.91446151,13.1149758 3.88617207,13.0098079 3.01217879,15.7562111 C2.13818552,18.5026144 3.08767314,24.1156862 0.660659381,25.8333783 L14.8056358,25.8284345 Z" stroke-linecap="round" stroke-linejoin="round" transform="matrix(-1 0 0 1 15.466 0)"/>
      <use fill="#625C15" stroke="#4D4701" stroke-width="2" mask="url(#e)" xlink:href="#a"/>
      <path fill="#252525" d="M9.80744639,24.0005772 C9.70665859,25.0107832 8.85415905,25.7996206 7.81741665,25.7996206 C6.78366896,25.7996206 5.93310125,25.0153338 5.82827911,24.0093258 C6.47457563,23.9337681 7.15649006,23.8938213 7.85606885,23.8938213 C8.52813627,23.8938213 9.18390133,23.930688 9.80744639,24.0005772 Z"/>
    </g>
    <g transform="rotate(21 21.802 104.026)">
      <path fill="#242424" stroke="#000000" d="M5.48776411,15.6097076 C5.48776411,15.6097076 6.27768563,8.5500374 6.33246794,7.12385504 C6.22204352,6.17757057 4.68248881,5.62950187 4.73014696,4.10702057 C4.67032861,1.31214043 6.43441707,0.680424305 7.64380399,0.697989035 C8.81547963,0.680424305 10.5795681,1.31214043 10.5197497,4.10702057 C10.5674079,5.62950187 9.02785318,6.17757057 8.91742876,7.12385504 C8.97221106,8.5500374 9.76213258,15.6097076 9.76213258,15.6097076 L5.48776411,15.6097076 Z" stroke-linecap="round" stroke-linejoin="round"/>
      <path fill="#D6C819" stroke="#776E00" d="M14.8056358,25.8284345 C12.3786221,24.1107423 13.3281097,18.4976705 12.4541164,15.7512673 C11.5801231,13.004864 7.91446151,13.1149758 7.91446151,13.1149758 C7.91446151,13.1149758 3.88617207,13.0098079 3.01217879,15.7562111 C2.13818552,18.5026144 3.08767314,24.1156862 0.660659381,25.8333783 L14.8056358,25.8284345 Z" stroke-linecap="round" stroke-linejoin="round" transform="matrix(-1 0 0 1 15.466 0)"/>
      <use fill="#625C15" stroke="#4D4701" stroke-width="2" mask="url(#f)" xlink:href="#b"/>
      <path fill="#252525" d="M9.80744639,24.0005772 C9.70665859,25.0107832 8.85415905,25.7996206 7.81741665,25.7996206 C6.78366896,25.7996206 5.93310125,25.0153338 5.82827911,24.0093258 C6.47457563,23.9337681 7.15649006,23.8938213 7.85606885,23.8938213 C8.52813627,23.8938213 9.18390133,23.930688 9.80744639,24.0005772 Z"/>
    </g>
    <g transform="translate(61 1)">
      <path fill="#242424" stroke="#000000" d="M5.48776411,15.6097076 C5.48776411,15.6097076 6.27768563,8.5500374 6.33246794,7.12385504 C6.22204352,6.17757057 4.68248881,5.62950187 4.73014696,4.10702057 C4.67032861,1.31214043 6.43441707,0.680424305 7.64380399,0.697989035 C8.81547963,0.680424305 10.5795681,1.31214043 10.5197497,4.10702057 C10.5674079,5.62950187 9.02785318,6.17757057 8.91742876,7.12385504 C8.97221106,8.5500374 9.76213258,15.6097076 9.76213258,15.6097076 L5.48776411,15.6097076 Z" stroke-linecap="round" stroke-linejoin="round"/>
      <path fill="#D6C819" stroke="#776E00" d="M14.8056358,25.8284345 C12.3786221,24.1107423 13.3281097,18.4976705 12.4541164,15.7512673 C11.5801231,13.004864 7.91446151,13.1149758 7.91446151,13.1149758 C7.91446151,13.1149758 3.88617207,13.0098079 3.01217879,15.7562111 C2.13818552,18.5026144 3.08767314,24.1156862 0.660659381,25.8333783 L14.8056358,25.8284345 Z" stroke-linecap="round" stroke-linejoin="round" transform="matrix(-1 0 0 1 15.466 0)"/>
      <use fill="#625C15" stroke="#4D4701" stroke-width="2" mask="url(#g)" xlink:href="#c"/>
      <path fill="#252525" d="M9.80744639,24.0005772 C9.70665859,25.0107832 8.85415905,25.7996206 7.81741665,25.7996206 C6.78366896,25.7996206 5.93310125,25.0153338 5.82827911,24.0093258 C6.47457563,23.9337681 7.15649006,23.8938213 7.85606885,23.8938213 C8.52813627,23.8938213 9.18390133,23.930688 9.80744639,24.0005772 Z"/>
    </g>
    <g transform="rotate(-18 55.657 -265.962)">
      <path fill="#242424" stroke="#000000" d="M5.48776411,15.6097076 C5.48776411,15.6097076 6.27768563,8.5500374 6.33246794,7.12385504 C6.22204352,6.17757057 4.68248881,5.62950187 4.73014696,4.10702057 C4.67032861,1.31214043 6.43441707,0.680424305 7.64380399,0.697989035 C8.81547963,0.680424305 10.5795681,1.31214043 10.5197497,4.10702057 C10.5674079,5.62950187 9.02785318,6.17757057 8.91742876,7.12385504 C8.97221106,8.5500374 9.76213258,15.6097076 9.76213258,15.6097076 L5.48776411,15.6097076 Z" stroke-linecap="round" stroke-linejoin="round"/>
      <path fill="#D6C819" stroke="#776E00" d="M14.8056358,25.8284345 C12.3786221,24.1107423 13.3281097,18.4976705 12.4541164,15.7512673 C11.5801231,13.004864 7.91446151,13.1149758 7.91446151,13.1149758 C7.91446151,13.1149758 3.88617207,13.0098079 3.01217879,15.7562111 C2.13818552,18.5026144 3.08767314,24.1156862 0.660659381,25.8333783 L14.8056358,25.8284345 Z" stroke-linecap="round" stroke-linejoin="round" transform="matrix(-1 0 0 1 15.466 0)"/>
      <use fill="#625C15" stroke="#4D4701" stroke-width="2" mask="url(#h)" xlink:href="#d"/>
      <path fill="#252525" d="M9.80744639,24.0005772 C9.70665859,25.0107832 8.85415905,25.7996206 7.81741665,25.7996206 C6.78366896,25.7996206 5.93310125,25.0153338 5.82827911,24.0093258 C6.47457563,23.9337681 7.15649006,23.8938213 7.85606885,23.8938213 C8.52813627,23.8938213 9.18390133,23.930688 9.80744639,24.0005772 Z"/>
    </g>
  </g>
</svg>
