<svg xmlns="http://www.w3.org/2000/svg" width="232" height="60" viewBox="0 0 232 60" xmlns:xlink="http://www.w3.org/1999/xlink">
  <defs>
    <circle id="a" cx="24.427" cy="29.32" r="22"/>
    <mask id="e" width="44" height="44" x="0" y="0" fill="white">
      <use xlink:href="#a"/>
    </mask>
    <circle id="b" cx="24.427" cy="29.32" r="22"/>
    <mask id="f" width="44" height="44" x="0" y="0" fill="white">
      <use xlink:href="#b"/>
    </mask>
    <circle id="c" cx="24.427" cy="29.32" r="22"/>
    <mask id="g" width="44" height="44" x="0" y="0" fill="white">
      <use xlink:href="#c"/>
    </mask>
    <circle id="d" cx="24.427" cy="29.32" r="22"/>
    <mask id="h" width="44" height="44" x="0" y="0" fill="white">
      <use xlink:href="#d"/>
    </mask>
  </defs>
  <g fill="none" fill-rule="evenodd">
    <g transform="translate(3.346 3.405)">
      <path stroke="#000000" stroke-width="5" d="M12.9409808,42.0843023 L5.869913,49.1553701" stroke-linecap="round" stroke-linejoin="round"/>
      <path stroke="#000000" stroke-width="5" d="M41.3000426,42.0843023 L34.2289748,49.1553701" stroke-linecap="round" stroke-linejoin="round" transform="matrix(-1 0 0 1 75.6 0)"/>
      <use fill="#D8D8D8" stroke="#000000" stroke-width="8" mask="url(#e)" xlink:href="#a"/>
      <polyline stroke="#000000" stroke-width="3" points="17.023 37.101 25.195 29.442 25.195 11.073" stroke-linecap="round" stroke-linejoin="round"/>
      <path fill="#FFCC66" stroke="#000000" stroke-width="2" d="M5.31095337,13.4589455 C5.31095337,13.4589455 -1.41944116,9.49141814 3.07407137,5.83264215 C7.5675839,2.17386616 13.8095636,2.07849522 17.0035267,4.42375329 C20.1974898,6.76901136 17.7973212,11.3612665 17.7973212,11.3612665 L5.31095337,13.4589455 Z" stroke-linecap="round" stroke-linejoin="round" transform="rotate(-21 10.095 8.15)"/>
      <path fill="#FFCC66" stroke="#000000" stroke-width="2" d="M33.2387051,13.4589455 C33.2387051,13.4589455 26.5083106,9.49141814 31.0018231,5.83264215 C35.4953356,2.17386616 41.7373154,2.07849522 44.9312784,4.42375329 C48.1252415,6.76901136 45.7250729,11.3612665 45.7250729,11.3612665 L33.2387051,13.4589455 Z" stroke-linecap="round" stroke-linejoin="round" transform="scale(-1 1) rotate(-21 0 213.304)"/>
      <path fill="#000000" d="M23.5770139,13.595393 C23.5770139,14.1476778 24.0247292,14.595393 24.5770139,14.595393 C25.1292987,14.595393 25.5770139,14.1476778 25.5770139,13.595393 L25.5770139,9.47228749 C25.5770139,8.92000274 25.1292987,8.47228749 24.5770139,8.47228749 C24.0247292,8.47228749 23.5770139,8.92000274 23.5770139,9.47228749 L23.5770139,13.595393 L23.5770139,13.595393 Z M31.6773964,15.2299856 C31.401254,15.7082782 31.5651292,16.3198686 32.0434218,16.596011 C32.5217144,16.8721534 33.1333048,16.7082782 33.4094472,16.2299856 L35.471,12.6592714 C35.7471424,12.1809788 35.5832672,11.5693884 35.1049746,11.293246 C34.626682,11.0171037 34.0150916,11.1809788 33.7389492,11.6592714 L31.6773964,15.2299856 L31.6773964,15.2299856 Z M37.8752371,20.6957755 C37.3969445,20.9719179 37.2330694,21.5835083 37.5092117,22.0618009 C37.7853541,22.5400935 38.3969445,22.7039687 38.8752371,22.4278263 L42.4459513,20.3662735 C42.9242439,20.0901312 43.0881191,19.4785408 42.8119767,19.0002481 C42.5358343,18.5219555 41.9242439,18.3580804 41.4459513,18.6342227 L37.8752371,20.6957755 L37.8752371,20.6957755 Z M40.5098297,28.5282088 C39.957545,28.5282088 39.5098297,28.975924 39.5098297,29.5282088 C39.5098297,30.0804935 39.957545,30.5282088 40.5098297,30.5282088 L44.6329352,30.5282088 C45.18522,30.5282088 45.6329352,30.0804935 45.6329352,29.5282088 C45.6329352,28.975924 45.18522,28.5282088 44.6329352,28.5282088 L40.5098297,28.5282088 L40.5098297,28.5282088 Z M38.8752371,36.6285913 C38.3969445,36.3524489 37.7853541,36.5163241 37.5092117,36.9946167 C37.2330694,37.4729093 37.3969445,38.0844997 37.8752371,38.3606421 L41.4459513,40.4221948 C41.9242439,40.6983372 42.5358343,40.5344621 42.8119767,40.0561694 C43.0881191,39.5778768 42.9242439,38.9662864 42.4459513,38.690144 L38.8752371,36.6285913 L38.8752371,36.6285913 Z M33.4094472,42.826432 C33.1333048,42.3481394 32.5217144,42.1842642 32.0434218,42.4604066 C31.5651292,42.736549 31.401254,43.3481394 31.6773964,43.826432 L33.7389492,47.3971461 C34.0150916,47.8754388 34.626682,48.0393139 35.1049746,47.7631715 C35.5832672,47.4870292 35.7471424,46.8754388 35.471,46.3971461 L33.4094472,42.826432 L33.4094472,42.826432 Z M25.5770139,45.4610246 C25.5770139,44.9087398 25.1292987,44.4610246 24.5770139,44.4610246 C24.0247292,44.4610246 23.5770139,44.9087398 23.5770139,45.4610246 L23.5770139,49.5841301 C23.5770139,50.1364148 24.0247292,50.5841301 24.5770139,50.5841301 C25.1292987,50.5841301 25.5770139,50.1364148 25.5770139,49.5841301 L25.5770139,45.4610246 L25.5770139,45.4610246 Z M17.4766314,43.826432 C17.7527738,43.3481394 17.5888987,42.736549 17.110606,42.4604066 C16.6323134,42.1842642 16.020723,42.3481394 15.7445806,42.826432 L13.6830279,46.3971461 C13.4068855,46.8754388 13.5707607,47.4870292 14.0490533,47.7631715 C14.5273459,48.0393139 15.1389363,47.8754388 15.4150787,47.3971461 L17.4766314,43.826432 L17.4766314,43.826432 Z M11.2787907,38.3606421 C11.7570833,38.0844997 11.9209585,37.4729093 11.6448161,36.9946167 C11.3686737,36.5163241 10.7570833,36.3524489 10.2787907,36.6285913 L6.70807658,38.690144 C6.22978396,38.9662864 6.06590881,39.5778768 6.34205118,40.0561694 C6.61819356,40.5344621 7.22978396,40.6983372 7.70807658,40.4221948 L11.2787907,38.3606421 L11.2787907,38.3606421 Z M8.64419815,30.5282088 C9.1964829,30.5282088 9.64419815,30.0804935 9.64419815,29.5282088 C9.64419815,28.975924 9.1964829,28.5282088 8.64419815,28.5282088 L4.52109263,28.5282088 C3.96880788,28.5282088 3.52109263,28.975924 3.52109263,29.5282088 C3.52109263,30.0804935 3.96880788,30.5282088 4.52109263,30.5282088 L8.64419815,30.5282088 L8.64419815,30.5282088 Z M10.2787907,22.4278263 C10.7570833,22.7039687 11.3686737,22.5400935 11.6448161,22.0618009 C11.9209585,21.5835083 11.7570833,20.9719179 11.2787907,20.6957755 L7.70807658,18.6342227 C7.22978396,18.3580804 6.61819356,18.5219555 6.34205118,19.0002481 C6.06590881,19.4785408 6.22978396,20.0901312 6.70807658,20.3662735 L10.2787907,22.4278263 L10.2787907,22.4278263 Z M15.7445806,16.2299856 C16.020723,16.7082782 16.6323134,16.8721534 17.110606,16.596011 C17.5888987,16.3198686 17.7527738,15.7082782 17.4766314,15.2299856 L15.4150787,11.6592714 C15.1389363,11.1809788 14.5273459,11.0171037 14.0490533,11.293246 C13.5707607,11.5693884 13.4068855,12.1809788 13.6830279,12.6592714 L15.7445806,16.2299856 L15.7445806,16.2299856 Z"/>
    </g>
    <g transform="rotate(-8 79.523 -418.091)">
      <path stroke="#000000" stroke-width="5" d="M12.9409808,42.0843023 L5.869913,49.1553701" stroke-linecap="round" stroke-linejoin="round"/>
      <path stroke="#000000" stroke-width="5" d="M41.3000426,42.0843023 L34.2289748,49.1553701" stroke-linecap="round" stroke-linejoin="round" transform="matrix(-1 0 0 1 75.6 0)"/>
      <use fill="#D8D8D8" stroke="#000000" stroke-width="8" mask="url(#f)" xlink:href="#b"/>
      <polyline stroke="#000000" stroke-width="3" points="17.023 37.101 25.195 29.442 25.195 11.073" stroke-linecap="round" stroke-linejoin="round"/>
      <path fill="#FFCC66" stroke="#000000" stroke-width="2" d="M5.31095337,13.4589455 C5.31095337,13.4589455 -1.41944116,9.49141814 3.07407137,5.83264215 C7.5675839,2.17386616 13.8095636,2.07849522 17.0035267,4.42375329 C20.1974898,6.76901136 17.7973212,11.3612665 17.7973212,11.3612665 L5.31095337,13.4589455 Z" stroke-linecap="round" stroke-linejoin="round" transform="rotate(-21 10.095 8.15)"/>
      <path fill="#FFCC66" stroke="#000000" stroke-width="2" d="M33.2387051,13.4589455 C33.2387051,13.4589455 26.5083106,9.49141814 31.0018231,5.83264215 C35.4953356,2.17386616 41.7373154,2.07849522 44.9312784,4.42375329 C48.1252415,6.76901136 45.7250729,11.3612665 45.7250729,11.3612665 L33.2387051,13.4589455 Z" stroke-linecap="round" stroke-linejoin="round" transform="scale(-1 1) rotate(-21 0 213.304)"/>
      <path fill="#000000" d="M23.5770139,13.595393 C23.5770139,14.1476778 24.0247292,14.595393 24.5770139,14.595393 C25.1292987,14.595393 25.5770139,14.1476778 25.5770139,13.595393 L25.5770139,9.47228749 C25.5770139,8.92000274 25.1292987,8.47228749 24.5770139,8.47228749 C24.0247292,8.47228749 23.5770139,8.92000274 23.5770139,9.47228749 L23.5770139,13.595393 L23.5770139,13.595393 Z M31.6773964,15.2299856 C31.401254,15.7082782 31.5651292,16.3198686 32.0434218,16.596011 C32.5217144,16.8721534 33.1333048,16.7082782 33.4094472,16.2299856 L35.471,12.6592714 C35.7471424,12.1809788 35.5832672,11.5693884 35.1049746,11.293246 C34.626682,11.0171037 34.0150916,11.1809788 33.7389492,11.6592714 L31.6773964,15.2299856 L31.6773964,15.2299856 Z M37.8752371,20.6957755 C37.3969445,20.9719179 37.2330694,21.5835083 37.5092117,22.0618009 C37.7853541,22.5400935 38.3969445,22.7039687 38.8752371,22.4278263 L42.4459513,20.3662735 C42.9242439,20.0901312 43.0881191,19.4785408 42.8119767,19.0002481 C42.5358343,18.5219555 41.9242439,18.3580804 41.4459513,18.6342227 L37.8752371,20.6957755 L37.8752371,20.6957755 Z M40.5098297,28.5282088 C39.957545,28.5282088 39.5098297,28.975924 39.5098297,29.5282088 C39.5098297,30.0804935 39.957545,30.5282088 40.5098297,30.5282088 L44.6329352,30.5282088 C45.18522,30.5282088 45.6329352,30.0804935 45.6329352,29.5282088 C45.6329352,28.975924 45.18522,28.5282088 44.6329352,28.5282088 L40.5098297,28.5282088 L40.5098297,28.5282088 Z M38.8752371,36.6285913 C38.3969445,36.3524489 37.7853541,36.5163241 37.5092117,36.9946167 C37.2330694,37.4729093 37.3969445,38.0844997 37.8752371,38.3606421 L41.4459513,40.4221948 C41.9242439,40.6983372 42.5358343,40.5344621 42.8119767,40.0561694 C43.0881191,39.5778768 42.9242439,38.9662864 42.4459513,38.690144 L38.8752371,36.6285913 L38.8752371,36.6285913 Z M33.4094472,42.826432 C33.1333048,42.3481394 32.5217144,42.1842642 32.0434218,42.4604066 C31.5651292,42.736549 31.401254,43.3481394 31.6773964,43.826432 L33.7389492,47.3971461 C34.0150916,47.8754388 34.626682,48.0393139 35.1049746,47.7631715 C35.5832672,47.4870292 35.7471424,46.8754388 35.471,46.3971461 L33.4094472,42.826432 L33.4094472,42.826432 Z M25.5770139,45.4610246 C25.5770139,44.9087398 25.1292987,44.4610246 24.5770139,44.4610246 C24.0247292,44.4610246 23.5770139,44.9087398 23.5770139,45.4610246 L23.5770139,49.5841301 C23.5770139,50.1364148 24.0247292,50.5841301 24.5770139,50.5841301 C25.1292987,50.5841301 25.5770139,50.1364148 25.5770139,49.5841301 L25.5770139,45.4610246 L25.5770139,45.4610246 Z M17.4766314,43.826432 C17.7527738,43.3481394 17.5888987,42.736549 17.110606,42.4604066 C16.6323134,42.1842642 16.020723,42.3481394 15.7445806,42.826432 L13.6830279,46.3971461 C13.4068855,46.8754388 13.5707607,47.4870292 14.0490533,47.7631715 C14.5273459,48.0393139 15.1389363,47.8754388 15.4150787,47.3971461 L17.4766314,43.826432 L17.4766314,43.826432 Z M11.2787907,38.3606421 C11.7570833,38.0844997 11.9209585,37.4729093 11.6448161,36.9946167 C11.3686737,36.5163241 10.7570833,36.3524489 10.2787907,36.6285913 L6.70807658,38.690144 C6.22978396,38.9662864 6.06590881,39.5778768 6.34205118,40.0561694 C6.61819356,40.5344621 7.22978396,40.6983372 7.70807658,40.4221948 L11.2787907,38.3606421 L11.2787907,38.3606421 Z M8.64419815,30.5282088 C9.1964829,30.5282088 9.64419815,30.0804935 9.64419815,29.5282088 C9.64419815,28.975924 9.1964829,28.5282088 8.64419815,28.5282088 L4.52109263,28.5282088 C3.96880788,28.5282088 3.52109263,28.975924 3.52109263,29.5282088 C3.52109263,30.0804935 3.96880788,30.5282088 4.52109263,30.5282088 L8.64419815,30.5282088 L8.64419815,30.5282088 Z M10.2787907,22.4278263 C10.7570833,22.7039687 11.3686737,22.5400935 11.6448161,22.0618009 C11.9209585,21.5835083 11.7570833,20.9719179 11.2787907,20.6957755 L7.70807658,18.6342227 C7.22978396,18.3580804 6.61819356,18.5219555 6.34205118,19.0002481 C6.06590881,19.4785408 6.22978396,20.0901312 6.70807658,20.3662735 L10.2787907,22.4278263 L10.2787907,22.4278263 Z M15.7445806,16.2299856 C16.020723,16.7082782 16.6323134,16.8721534 17.110606,16.596011 C17.5888987,16.3198686 17.7527738,15.7082782 17.4766314,15.2299856 L15.4150787,11.6592714 C15.1389363,11.1809788 14.5273459,11.0171037 14.0490533,11.293246 C13.5707607,11.5693884 13.4068855,12.1809788 13.6830279,12.6592714 L15.7445806,16.2299856 L15.7445806,16.2299856 Z"/>
    </g>
    <g transform="translate(121.346 3.405)">
      <path stroke="#000000" stroke-width="5" d="M12.9409808,42.0843023 L5.869913,49.1553701" stroke-linecap="round" stroke-linejoin="round"/>
      <path stroke="#000000" stroke-width="5" d="M41.3000426,42.0843023 L34.2289748,49.1553701" stroke-linecap="round" stroke-linejoin="round" transform="matrix(-1 0 0 1 75.6 0)"/>
      <use fill="#D8D8D8" stroke="#000000" stroke-width="8" mask="url(#g)" xlink:href="#c"/>
      <polyline stroke="#000000" stroke-width="3" points="17.023 37.101 25.195 29.442 25.195 11.073" stroke-linecap="round" stroke-linejoin="round"/>
      <path fill="#FFCC66" stroke="#000000" stroke-width="2" d="M5.31095337,13.4589455 C5.31095337,13.4589455 -1.41944116,9.49141814 3.07407137,5.83264215 C7.5675839,2.17386616 13.8095636,2.07849522 17.0035267,4.42375329 C20.1974898,6.76901136 17.7973212,11.3612665 17.7973212,11.3612665 L5.31095337,13.4589455 Z" stroke-linecap="round" stroke-linejoin="round" transform="rotate(-21 10.095 8.15)"/>
      <path fill="#FFCC66" stroke="#000000" stroke-width="2" d="M33.2387051,13.4589455 C33.2387051,13.4589455 26.5083106,9.49141814 31.0018231,5.83264215 C35.4953356,2.17386616 41.7373154,2.07849522 44.9312784,4.42375329 C48.1252415,6.76901136 45.7250729,11.3612665 45.7250729,11.3612665 L33.2387051,13.4589455 Z" stroke-linecap="round" stroke-linejoin="round" transform="scale(-1 1) rotate(-21 0 213.304)"/>
      <path fill="#000000" d="M23.5770139,13.595393 C23.5770139,14.1476778 24.0247292,14.595393 24.5770139,14.595393 C25.1292987,14.595393 25.5770139,14.1476778 25.5770139,13.595393 L25.5770139,9.47228749 C25.5770139,8.92000274 25.1292987,8.47228749 24.5770139,8.47228749 C24.0247292,8.47228749 23.5770139,8.92000274 23.5770139,9.47228749 L23.5770139,13.595393 L23.5770139,13.595393 Z M31.6773964,15.2299856 C31.401254,15.7082782 31.5651292,16.3198686 32.0434218,16.596011 C32.5217144,16.8721534 33.1333048,16.7082782 33.4094472,16.2299856 L35.471,12.6592714 C35.7471424,12.1809788 35.5832672,11.5693884 35.1049746,11.293246 C34.626682,11.0171037 34.0150916,11.1809788 33.7389492,11.6592714 L31.6773964,15.2299856 L31.6773964,15.2299856 Z M37.8752371,20.6957755 C37.3969445,20.9719179 37.2330694,21.5835083 37.5092117,22.0618009 C37.7853541,22.5400935 38.3969445,22.7039687 38.8752371,22.4278263 L42.4459513,20.3662735 C42.9242439,20.0901312 43.0881191,19.4785408 42.8119767,19.0002481 C42.5358343,18.5219555 41.9242439,18.3580804 41.4459513,18.6342227 L37.8752371,20.6957755 L37.8752371,20.6957755 Z M40.5098297,28.5282088 C39.957545,28.5282088 39.5098297,28.975924 39.5098297,29.5282088 C39.5098297,30.0804935 39.957545,30.5282088 40.5098297,30.5282088 L44.6329352,30.5282088 C45.18522,30.5282088 45.6329352,30.0804935 45.6329352,29.5282088 C45.6329352,28.975924 45.18522,28.5282088 44.6329352,28.5282088 L40.5098297,28.5282088 L40.5098297,28.5282088 Z M38.8752371,36.6285913 C38.3969445,36.3524489 37.7853541,36.5163241 37.5092117,36.9946167 C37.2330694,37.4729093 37.3969445,38.0844997 37.8752371,38.3606421 L41.4459513,40.4221948 C41.9242439,40.6983372 42.5358343,40.5344621 42.8119767,40.0561694 C43.0881191,39.5778768 42.9242439,38.9662864 42.4459513,38.690144 L38.8752371,36.6285913 L38.8752371,36.6285913 Z M33.4094472,42.826432 C33.1333048,42.3481394 32.5217144,42.1842642 32.0434218,42.4604066 C31.5651292,42.736549 31.401254,43.3481394 31.6773964,43.826432 L33.7389492,47.3971461 C34.0150916,47.8754388 34.626682,48.0393139 35.1049746,47.7631715 C35.5832672,47.4870292 35.7471424,46.8754388 35.471,46.3971461 L33.4094472,42.826432 L33.4094472,42.826432 Z M25.5770139,45.4610246 C25.5770139,44.9087398 25.1292987,44.4610246 24.5770139,44.4610246 C24.0247292,44.4610246 23.5770139,44.9087398 23.5770139,45.4610246 L23.5770139,49.5841301 C23.5770139,50.1364148 24.0247292,50.5841301 24.5770139,50.5841301 C25.1292987,50.5841301 25.5770139,50.1364148 25.5770139,49.5841301 L25.5770139,45.4610246 L25.5770139,45.4610246 Z M17.4766314,43.826432 C17.7527738,43.3481394 17.5888987,42.736549 17.110606,42.4604066 C16.6323134,42.1842642 16.020723,42.3481394 15.7445806,42.826432 L13.6830279,46.3971461 C13.4068855,46.8754388 13.5707607,47.4870292 14.0490533,47.7631715 C14.5273459,48.0393139 15.1389363,47.8754388 15.4150787,47.3971461 L17.4766314,43.826432 L17.4766314,43.826432 Z M11.2787907,38.3606421 C11.7570833,38.0844997 11.9209585,37.4729093 11.6448161,36.9946167 C11.3686737,36.5163241 10.7570833,36.3524489 10.2787907,36.6285913 L6.70807658,38.690144 C6.22978396,38.9662864 6.06590881,39.5778768 6.34205118,40.0561694 C6.61819356,40.5344621 7.22978396,40.6983372 7.70807658,40.4221948 L11.2787907,38.3606421 L11.2787907,38.3606421 Z M8.64419815,30.5282088 C9.1964829,30.5282088 9.64419815,30.0804935 9.64419815,29.5282088 C9.64419815,28.975924 9.1964829,28.5282088 8.64419815,28.5282088 L4.52109263,28.5282088 C3.96880788,28.5282088 3.52109263,28.975924 3.52109263,29.5282088 C3.52109263,30.0804935 3.96880788,30.5282088 4.52109263,30.5282088 L8.64419815,30.5282088 L8.64419815,30.5282088 Z M10.2787907,22.4278263 C10.7570833,22.7039687 11.3686737,22.5400935 11.6448161,22.0618009 C11.9209585,21.5835083 11.7570833,20.9719179 11.2787907,20.6957755 L7.70807658,18.6342227 C7.22978396,18.3580804 6.61819356,18.5219555 6.34205118,19.0002481 C6.06590881,19.4785408 6.22978396,20.0901312 6.70807658,20.3662735 L10.2787907,22.4278263 L10.2787907,22.4278263 Z M15.7445806,16.2299856 C16.020723,16.7082782 16.6323134,16.8721534 17.110606,16.596011 C17.5888987,16.3198686 17.7527738,15.7082782 17.4766314,15.2299856 L15.4150787,11.6592714 C15.1389363,11.1809788 14.5273459,11.0171037 14.0490533,11.293246 C13.5707607,11.5693884 13.4068855,12.1809788 13.6830279,12.6592714 L15.7445806,16.2299856 L15.7445806,16.2299856 Z"/>
    </g>
    <g transform="rotate(8 89.823 1317.236)">
      <path stroke="#000000" stroke-width="5" d="M12.9409808,42.0843023 L5.869913,49.1553701" stroke-linecap="round" stroke-linejoin="round"/>
      <path stroke="#000000" stroke-width="5" d="M41.3000426,42.0843023 L34.2289748,49.1553701" stroke-linecap="round" stroke-linejoin="round" transform="matrix(-1 0 0 1 75.6 0)"/>
      <use fill="#D8D8D8" stroke="#000000" stroke-width="8" mask="url(#h)" xlink:href="#d"/>
      <polyline stroke="#000000" stroke-width="3" points="17.023 37.101 25.195 29.442 25.195 11.073" stroke-linecap="round" stroke-linejoin="round"/>
      <path fill="#FFCC66" stroke="#000000" stroke-width="2" d="M5.31095337,13.4589455 C5.31095337,13.4589455 -1.41944116,9.49141814 3.07407137,5.83264215 C7.5675839,2.17386616 13.8095636,2.07849522 17.0035267,4.42375329 C20.1974898,6.76901136 17.7973212,11.3612665 17.7973212,11.3612665 L5.31095337,13.4589455 Z" stroke-linecap="round" stroke-linejoin="round" transform="rotate(-21 10.095 8.15)"/>
      <path fill="#FFCC66" stroke="#000000" stroke-width="2" d="M33.2387051,13.4589455 C33.2387051,13.4589455 26.5083106,9.49141814 31.0018231,5.83264215 C35.4953356,2.17386616 41.7373154,2.07849522 44.9312784,4.42375329 C48.1252415,6.76901136 45.7250729,11.3612665 45.7250729,11.3612665 L33.2387051,13.4589455 Z" stroke-linecap="round" stroke-linejoin="round" transform="scale(-1 1) rotate(-21 0 213.304)"/>
      <path fill="#000000" d="M23.5770139,13.595393 C23.5770139,14.1476778 24.0247292,14.595393 24.5770139,14.595393 C25.1292987,14.595393 25.5770139,14.1476778 25.5770139,13.595393 L25.5770139,9.47228749 C25.5770139,8.92000274 25.1292987,8.47228749 24.5770139,8.47228749 C24.0247292,8.47228749 23.5770139,8.92000274 23.5770139,9.47228749 L23.5770139,13.595393 L23.5770139,13.595393 Z M31.6773964,15.2299856 C31.401254,15.7082782 31.5651292,16.3198686 32.0434218,16.596011 C32.5217144,16.8721534 33.1333048,16.7082782 33.4094472,16.2299856 L35.471,12.6592714 C35.7471424,12.1809788 35.5832672,11.5693884 35.1049746,11.293246 C34.626682,11.0171037 34.0150916,11.1809788 33.7389492,11.6592714 L31.6773964,15.2299856 L31.6773964,15.2299856 Z M37.8752371,20.6957755 C37.3969445,20.9719179 37.2330694,21.5835083 37.5092117,22.0618009 C37.7853541,22.5400935 38.3969445,22.7039687 38.8752371,22.4278263 L42.4459513,20.3662735 C42.9242439,20.0901312 43.0881191,19.4785408 42.8119767,19.0002481 C42.5358343,18.5219555 41.9242439,18.3580804 41.4459513,18.6342227 L37.8752371,20.6957755 L37.8752371,20.6957755 Z M40.5098297,28.5282088 C39.957545,28.5282088 39.5098297,28.975924 39.5098297,29.5282088 C39.5098297,30.0804935 39.957545,30.5282088 40.5098297,30.5282088 L44.6329352,30.5282088 C45.18522,30.5282088 45.6329352,30.0804935 45.6329352,29.5282088 C45.6329352,28.975924 45.18522,28.5282088 44.6329352,28.5282088 L40.5098297,28.5282088 L40.5098297,28.5282088 Z M38.8752371,36.6285913 C38.3969445,36.3524489 37.7853541,36.5163241 37.5092117,36.9946167 C37.2330694,37.4729093 37.3969445,38.0844997 37.8752371,38.3606421 L41.4459513,40.4221948 C41.9242439,40.6983372 42.5358343,40.5344621 42.8119767,40.0561694 C43.0881191,39.5778768 42.9242439,38.9662864 42.4459513,38.690144 L38.8752371,36.6285913 L38.8752371,36.6285913 Z M33.4094472,42.826432 C33.1333048,42.3481394 32.5217144,42.1842642 32.0434218,42.4604066 C31.5651292,42.736549 31.401254,43.3481394 31.6773964,43.826432 L33.7389492,47.3971461 C34.0150916,47.8754388 34.626682,48.0393139 35.1049746,47.7631715 C35.5832672,47.4870292 35.7471424,46.8754388 35.471,46.3971461 L33.4094472,42.826432 L33.4094472,42.826432 Z M25.5770139,45.4610246 C25.5770139,44.9087398 25.1292987,44.4610246 24.5770139,44.4610246 C24.0247292,44.4610246 23.5770139,44.9087398 23.5770139,45.4610246 L23.5770139,49.5841301 C23.5770139,50.1364148 24.0247292,50.5841301 24.5770139,50.5841301 C25.1292987,50.5841301 25.5770139,50.1364148 25.5770139,49.5841301 L25.5770139,45.4610246 L25.5770139,45.4610246 Z M17.4766314,43.826432 C17.7527738,43.3481394 17.5888987,42.736549 17.110606,42.4604066 C16.6323134,42.1842642 16.020723,42.3481394 15.7445806,42.826432 L13.6830279,46.3971461 C13.4068855,46.8754388 13.5707607,47.4870292 14.0490533,47.7631715 C14.5273459,48.0393139 15.1389363,47.8754388 15.4150787,47.3971461 L17.4766314,43.826432 L17.4766314,43.826432 Z M11.2787907,38.3606421 C11.7570833,38.0844997 11.9209585,37.4729093 11.6448161,36.9946167 C11.3686737,36.5163241 10.7570833,36.3524489 10.2787907,36.6285913 L6.70807658,38.690144 C6.22978396,38.9662864 6.06590881,39.5778768 6.34205118,40.0561694 C6.61819356,40.5344621 7.22978396,40.6983372 7.70807658,40.4221948 L11.2787907,38.3606421 L11.2787907,38.3606421 Z M8.64419815,30.5282088 C9.1964829,30.5282088 9.64419815,30.0804935 9.64419815,29.5282088 C9.64419815,28.975924 9.1964829,28.5282088 8.64419815,28.5282088 L4.52109263,28.5282088 C3.96880788,28.5282088 3.52109263,28.975924 3.52109263,29.5282088 C3.52109263,30.0804935 3.96880788,30.5282088 4.52109263,30.5282088 L8.64419815,30.5282088 L8.64419815,30.5282088 Z M10.2787907,22.4278263 C10.7570833,22.7039687 11.3686737,22.5400935 11.6448161,22.0618009 C11.9209585,21.5835083 11.7570833,20.9719179 11.2787907,20.6957755 L7.70807658,18.6342227 C7.22978396,18.3580804 6.61819356,18.5219555 6.34205118,19.0002481 C6.06590881,19.4785408 6.22978396,20.0901312 6.70807658,20.3662735 L10.2787907,22.4278263 L10.2787907,22.4278263 Z M15.7445806,16.2299856 C16.020723,16.7082782 16.6323134,16.8721534 17.110606,16.596011 C17.5888987,16.3198686 17.7527738,15.7082782 17.4766314,15.2299856 L15.4150787,11.6592714 C15.1389363,11.1809788 14.5273459,11.0171037 14.0490533,11.293246 C13.5707607,11.5693884 13.4068855,12.1809788 13.6830279,12.6592714 L15.7445806,16.2299856 L15.7445806,16.2299856 Z"/>
    </g>
  </g>
</svg>
