<svg xmlns="http://www.w3.org/2000/svg" width="39" height="217" viewBox="0 0 39 217">
  <g fill="none" fill-rule="evenodd">
    <path fill="#8984AB" stroke="#6468A0" d="M35.087,16 C36.7438542,16 38.087,14.6568542 38.087,13 C38.087,11.3431458 36.7438542,10 35.087,10 L4,10 C2.34314575,10 1,11.3431458 1,13 C1,14.6568542 2.34314575,16 4,16 L35.087,16 Z"/>
    <rect width="1" height="6" x="17" y="10" fill="#6468A0"/>
    <rect width="1" height="6" x="13" y="10" fill="#6468A0"/>
    <rect width="1" height="6" x="9" y="10" fill="#6468A0"/>
    <rect width="1" height="6" x="5" y="10" fill="#6468A0"/>
    <rect width="1" height="6" x="21" y="10" fill="#6468A0"/>
    <rect width="1" height="6" x="25" y="10" fill="#6468A0"/>
    <rect width="1" height="6" x="29" y="10" fill="#6468A0"/>
    <rect width="1" height="6" x="33" y="10" fill="#6468A0"/>
    <g transform="translate(0 200)">
      <path fill="#8984AB" stroke="#6468A0" d="M35.087,16 C36.7438542,16 38.087,14.6568542 38.087,13 C38.087,11.3431458 36.7438542,10 35.087,10 L4,10 C2.34314575,10 1,11.3431458 1,13 C1,14.6568542 2.34314575,16 4,16 L35.087,16 Z"/>
      <rect width="1" height="6" x="17" y="10" fill="#6468A0"/>
      <rect width="1" height="6" x="13" y="10" fill="#6468A0"/>
      <rect width="1" height="6" x="9" y="10" fill="#6468A0"/>
      <rect width="1" height="6" x="5" y="10" fill="#6468A0"/>
      <rect width="1" height="6" x="21" y="10" fill="#6468A0"/>
      <rect width="1" height="6" x="25" y="10" fill="#6468A0"/>
      <rect width="1" height="6" x="29" y="10" fill="#6468A0"/>
      <rect width="1" height="6" x="33" y="10" fill="#6468A0"/>
    </g>
    <g transform="translate(0 20)">
      <path fill="#8984AB" stroke="#6468A0" d="M7.2047095,16.0018104 C8.39775235,16.0018103 8.39775235,16.0018103 9.66612249,16.0018103 C11.378974,16.0018103 11.378974,16.0018103 12.9063129,16.0018103 C14.1200748,16.0018103 14.5473232,15.9120697 17.3140892,15.2216468 C19.0200154,14.7959474 20.0366299,14.6200008 21.059679,14.6200008 C22.0266185,14.6200008 22.8015841,14.7778243 24.0027982,15.1657368 C24.135492,15.2085881 24.6041563,15.3625752 24.6153391,15.3662266 C24.8796415,15.452528 25.0822687,15.5166106 25.2858224,15.5771383 C25.8603252,15.7479696 26.364569,15.8653995 26.8863662,15.9351476 C27.2137596,15.9789099 27.538674,16.0018103 27.8652439,16.0018103 C28.8752737,16.0018103 28.8752737,16.0018103 29.9391575,16.0018103 C31.3376565,16.0018103 31.3376565,16.0018103 32.6138285,16.0018104 C34.5635159,16.0018104 34.5635159,16.0018104 35.0869999,16.0018104 C36.7438541,16.0018105 38.0869999,14.6586647 38.087,13.0018105 C38.087,11.3449562 36.7438543,10.0018105 35.087,10.0018104 C34.563516,10.0018104 34.563516,10.0018104 32.6138286,10.0018104 C31.3376566,10.0018103 31.3376566,10.0018103 29.9391576,10.0018103 C28.8752737,10.0018103 28.8752737,10.0018103 27.8652439,10.0018103 C27.8128384,10.0018103 27.7524944,9.99755718 27.6813095,9.98804198 C27.354939,9.94441637 27.4042639,9.95908339 25.8466406,9.45607435 C24.1017347,8.89258546 22.7632536,8.62000084 21.059679,8.62000084 C19.4196586,8.62000084 18.0103186,8.86391691 15.8613877,9.40016432 C13.7744799,9.9209344 13.3894356,10.0018103 12.9063129,10.0018103 C11.378974,10.0018103 11.378974,10.0018103 9.66612242,10.0018103 C8.39775228,10.0018103 8.39775228,10.0018103 7.20470942,10.0018104 C4.69714006,10.0018104 4.69714006,10.0018104 3.99999995,10.0018104 C2.3431457,10.0018104 0.99999997,11.3449562 1,13.0018105 C1.00000003,14.6586647 2.34314581,16.0018104 4.00000005,16.0018104 C4.69714016,16.0018104 4.69714016,16.0018104 7.2047095,16.0018104 Z"/>
      <rect width="1" height="6" x="16.808" y="9.022" fill="#6468A0" transform="rotate(-16 17.308 12.022)"/>
      <rect width="1" height="6" x="13" y="10" fill="#6468A0"/>
      <rect width="1" height="6" x="9" y="10" fill="#6468A0"/>
      <rect width="1" height="6" x="5" y="10" fill="#6468A0"/>
      <rect width="1" height="6" x="20.5" y="9" fill="#6468A0"/>
      <rect width="1" height="6" x="24.463" y="9.041" fill="#6468A0" transform="rotate(9 24.963 12.041)"/>
      <rect width="1" height="6" x="29" y="10" fill="#6468A0"/>
      <rect width="1" height="6" x="33" y="10" fill="#6468A0"/>
    </g>
    <g transform="translate(0 180)">
      <path fill="#8984AB" stroke="#6468A0" d="M7.2047095,16.0018104 C8.39775235,16.0018103 8.39775235,16.0018103 9.66612249,16.0018103 C11.378974,16.0018103 11.378974,16.0018103 12.9063129,16.0018103 C14.1200748,16.0018103 14.5473232,15.9120697 17.3140892,15.2216468 C19.0200154,14.7959474 20.0366299,14.6200008 21.059679,14.6200008 C22.0266185,14.6200008 22.8015841,14.7778243 24.0027982,15.1657368 C24.135492,15.2085881 24.6041563,15.3625752 24.6153391,15.3662266 C24.8796415,15.452528 25.0822687,15.5166106 25.2858224,15.5771383 C25.8603252,15.7479696 26.364569,15.8653995 26.8863662,15.9351476 C27.2137596,15.9789099 27.538674,16.0018103 27.8652439,16.0018103 C28.8752737,16.0018103 28.8752737,16.0018103 29.9391575,16.0018103 C31.3376565,16.0018103 31.3376565,16.0018103 32.6138285,16.0018104 C34.5635159,16.0018104 34.5635159,16.0018104 35.0869999,16.0018104 C36.7438541,16.0018105 38.0869999,14.6586647 38.087,13.0018105 C38.087,11.3449562 36.7438543,10.0018105 35.087,10.0018104 C34.563516,10.0018104 34.563516,10.0018104 32.6138286,10.0018104 C31.3376566,10.0018103 31.3376566,10.0018103 29.9391576,10.0018103 C28.8752737,10.0018103 28.8752737,10.0018103 27.8652439,10.0018103 C27.8128384,10.0018103 27.7524944,9.99755718 27.6813095,9.98804198 C27.354939,9.94441637 27.4042639,9.95908339 25.8466406,9.45607435 C24.1017347,8.89258546 22.7632536,8.62000084 21.059679,8.62000084 C19.4196586,8.62000084 18.0103186,8.86391691 15.8613877,9.40016432 C13.7744799,9.9209344 13.3894356,10.0018103 12.9063129,10.0018103 C11.378974,10.0018103 11.378974,10.0018103 9.66612242,10.0018103 C8.39775228,10.0018103 8.39775228,10.0018103 7.20470942,10.0018104 C4.69714006,10.0018104 4.69714006,10.0018104 3.99999995,10.0018104 C2.3431457,10.0018104 0.99999997,11.3449562 1,13.0018105 C1.00000003,14.6586647 2.34314581,16.0018104 4.00000005,16.0018104 C4.69714016,16.0018104 4.69714016,16.0018104 7.2047095,16.0018104 Z"/>
      <rect width="1" height="6" x="16.808" y="9.022" fill="#6468A0" transform="rotate(-16 17.308 12.022)"/>
      <rect width="1" height="6" x="13" y="10" fill="#6468A0"/>
      <rect width="1" height="6" x="9" y="10" fill="#6468A0"/>
      <rect width="1" height="6" x="5" y="10" fill="#6468A0"/>
      <rect width="1" height="6" x="20.5" y="9" fill="#6468A0"/>
      <rect width="1" height="6" x="24.463" y="9.041" fill="#6468A0" transform="rotate(9 24.963 12.041)"/>
      <rect width="1" height="6" x="29" y="10" fill="#6468A0"/>
      <rect width="1" height="6" x="33" y="10" fill="#6468A0"/>
    </g>
    <g transform="translate(0 40)">
      <path fill="#8984AB" stroke="#6468A0" d="M6.25919741,15.999999 C8.05253667,15.999999 8.05253667,15.999999 10.128051,15.999999 C10.5730606,15.999999 10.5730606,15.999999 11.015289,15.999999 C11.9473706,15.999999 12.8319424,15.7786749 13.8394313,15.3784153 C14.1830768,15.2418903 14.5332847,15.0876809 14.9579953,14.8897434 C15.180873,14.7858706 15.9259283,14.431161 15.986567,14.4025557 C17.542517,13.668563 18.4275737,13.3786862 19.1880356,13.3786862 C19.8459705,13.3786862 20.4354063,13.6070559 21.4708204,14.2442469 C21.5992007,14.3232518 22.0742389,14.620667 22.0613357,14.6126306 C22.3266651,14.7778835 22.5302078,14.9009481 22.7383871,15.0197611 C23.3627759,15.3761152 23.9251893,15.6317614 24.541946,15.8015273 C25.0105664,15.9305177 25.4867848,15.999999 25.9742199,15.999999 C26.6543209,15.999999 26.6543209,15.999999 27.3483645,15.999999 C29.0004306,15.999999 29.0004306,15.999999 30.4644494,15.999999 C32.2203705,15.999999 32.2203705,15.999999 32.6792657,15.9999989 C34.33612,15.9999989 35.6792657,14.657147 35.6792656,13.0006553 C35.6792656,11.3441637 34.3361198,10.0013119 32.6792655,10.0013119 C32.2203704,10.0013119 32.2203704,10.0013119 30.4644493,10.001312 C29.0004305,10.001312 29.0004305,10.001312 27.3483644,10.001312 C26.6543208,10.001312 26.6543208,10.001312 25.9742199,10.001312 C26.0478196,10.001312 26.1032191,10.0093949 26.1345844,10.0180284 C25.9780024,9.97492828 25.9998133,9.98737633 24.615951,9.13575126 C22.718589,7.96811987 21.2006147,7.37999916 19.1880356,7.37999916 C17.285428,7.37999916 15.7386413,7.88660804 13.4262425,8.97744249 C11.6007681,9.83857869 11.191154,10.001312 11.015289,10.001312 C10.5730607,10.001312 10.5730607,10.001312 10.1280511,10.001312 C8.05253675,10.001312 8.05253675,10.001312 6.25919752,10.001312 C4.46076219,10.0013119 4.46076219,10.0013119 4.00000008,10.0013119 C2.34314583,10.0013119 1.00000005,11.3441637 1,13.0006553 C0.999999955,14.657147 2.34314567,15.9999989 3.99999992,15.9999989 C4.46076204,15.999999 4.46076204,15.999999 6.25919741,15.999999 Z"/>
      <rect width="1" height="6" x="15.759" y="8.027" fill="#6468A0" transform="rotate(-15 16.26 11.027)"/>
      <rect width="1" height="6" x="12.537" y="9.041" fill="#6468A0" transform="rotate(-9 13.037 12.041)"/>
      <rect width="1" height="6" x="9" y="10" fill="#6468A0"/>
      <rect width="1" height="6" x="5" y="10" fill="#6468A0"/>
      <rect width="1" height="6" x="19" y="7" fill="#6468A0"/>
      <rect width="1" height="6" x="21.711" y="8.032" fill="#6468A0" transform="rotate(14 22.21 11.032)"/>
      <rect width="1" height="6" x="25.316" y="10.04" fill="#6468A0" transform="rotate(8 25.816 13.04)"/>
      <rect width="1" height="6" x="29.728" y="10" fill="#6468A0"/>
    </g>
    <g transform="translate(0 160)">
      <path fill="#8984AB" stroke="#6468A0" d="M6.25919741,15.999999 C8.05253667,15.999999 8.05253667,15.999999 10.128051,15.999999 C10.5730606,15.999999 10.5730606,15.999999 11.015289,15.999999 C11.9473706,15.999999 12.8319424,15.7786749 13.8394313,15.3784153 C14.1830768,15.2418903 14.5332847,15.0876809 14.9579953,14.8897434 C15.180873,14.7858706 15.9259283,14.431161 15.986567,14.4025557 C17.542517,13.668563 18.4275737,13.3786862 19.1880356,13.3786862 C19.8459705,13.3786862 20.4354063,13.6070559 21.4708204,14.2442469 C21.5992007,14.3232518 22.0742389,14.620667 22.0613357,14.6126306 C22.3266651,14.7778835 22.5302078,14.9009481 22.7383871,15.0197611 C23.3627759,15.3761152 23.9251893,15.6317614 24.541946,15.8015273 C25.0105664,15.9305177 25.4867848,15.999999 25.9742199,15.999999 C26.6543209,15.999999 26.6543209,15.999999 27.3483645,15.999999 C29.0004306,15.999999 29.0004306,15.999999 30.4644494,15.999999 C32.2203705,15.999999 32.2203705,15.999999 32.6792657,15.9999989 C34.33612,15.9999989 35.6792657,14.657147 35.6792656,13.0006553 C35.6792656,11.3441637 34.3361198,10.0013119 32.6792655,10.0013119 C32.2203704,10.0013119 32.2203704,10.0013119 30.4644493,10.001312 C29.0004305,10.001312 29.0004305,10.001312 27.3483644,10.001312 C26.6543208,10.001312 26.6543208,10.001312 25.9742199,10.001312 C26.0478196,10.001312 26.1032191,10.0093949 26.1345844,10.0180284 C25.9780024,9.97492828 25.9998133,9.98737633 24.615951,9.13575126 C22.718589,7.96811987 21.2006147,7.37999916 19.1880356,7.37999916 C17.285428,7.37999916 15.7386413,7.88660804 13.4262425,8.97744249 C11.6007681,9.83857869 11.191154,10.001312 11.015289,10.001312 C10.5730607,10.001312 10.5730607,10.001312 10.1280511,10.001312 C8.05253675,10.001312 8.05253675,10.001312 6.25919752,10.001312 C4.46076219,10.0013119 4.46076219,10.0013119 4.00000008,10.0013119 C2.34314583,10.0013119 1.00000005,11.3441637 1,13.0006553 C0.999999955,14.657147 2.34314567,15.9999989 3.99999992,15.9999989 C4.46076204,15.999999 4.46076204,15.999999 6.25919741,15.999999 Z"/>
      <rect width="1" height="6" x="15.759" y="8.027" fill="#6468A0" transform="rotate(-15 16.26 11.027)"/>
      <rect width="1" height="6" x="12.537" y="9.041" fill="#6468A0" transform="rotate(-9 13.037 12.041)"/>
      <rect width="1" height="6" x="9" y="10" fill="#6468A0"/>
      <rect width="1" height="6" x="5" y="10" fill="#6468A0"/>
      <rect width="1" height="6" x="19" y="7" fill="#6468A0"/>
      <rect width="1" height="6" x="21.711" y="8.032" fill="#6468A0" transform="rotate(14 22.21 11.032)"/>
      <rect width="1" height="6" x="25.316" y="10.04" fill="#6468A0" transform="rotate(8 25.816 13.04)"/>
      <rect width="1" height="6" x="29.728" y="10" fill="#6468A0"/>
    </g>
    <g transform="translate(0 60)">
      <path fill="#8984AB" stroke="#6468A0" d="M6.11621276,15.9958848 C8.12926933,15.9958847 8.12926933,15.9958847 10.5251521,15.9958847 C10.6272505,15.9958847 10.6272505,15.9958847 10.7293194,15.9958847 C12.3159243,15.9958847 13.4433496,15.233279 14.5106038,13.9900893 C14.7689203,13.6891897 15.0180431,13.3650546 15.3097837,12.9604061 C15.4628258,12.7481345 15.9650461,12.0337927 15.9822993,12.0094839 C16.4929579,11.2899938 16.703763,10.7875657 16.9999084,10.7875657 C16.9000611,10.8774212 17.0357191,10.7733925 17.5038819,10.7735166 C17.654397,10.7735261 17.7319763,10.7729835 17.8863122,10.7715262 C18.3394709,10.7672675 17.6947423,10.5520023 18.2847817,10.6378777 C18.981262,11.1978288 18.9421604,11.3316581 19.4611342,12.0376401 C19.5490577,12.1572462 20.0511912,12.8500879 20.1998898,13.0508184 C20.5208667,13.4841098 20.7868303,13.8210678 21.0618383,14.1312782 C22.0889815,15.2899008 23.131928,15.9958847 24.6362903,15.9958847 C25.1241496,15.9958847 25.1241496,15.9958847 25.6166924,15.9958847 C27.4324875,15.9958848 27.4324875,15.9958848 29.0136199,15.9958848 C30.6848661,15.9958848 30.6848661,15.9958848 31.1155364,15.9958849 C32.7723906,15.9958849 34.1155364,14.6527392 34.1155365,12.995885 C34.1155366,11.3390307 32.7723909,9.99588493 31.1155366,9.99588487 C30.6848664,9.99588485 30.6848664,9.99588485 29.0136201,9.9958848 C27.4324876,9.99588475 27.4324876,9.99588475 25.6166924,9.99588473 C25.1241496,9.99588473 25.3868312,9.93886413 25.2974243,9.8380127 C25.1605405,9.68360711 25.2465947,9.78367219 25.0211252,9.47930761 C24.8954768,9.30969295 24.4021795,8.62904342 24.295467,8.48387787 C23.5461732,7.46458183 22.9710036,6.77754236 22.2776534,6.15937618 C21.5177784,5.48189881 20.647824,5.07626311 19.6916886,4.89385719 C19.0907079,4.77920559 18.6864884,4.7637413 17.8299277,4.77179111 C17.6854204,4.77313497 17.6295042,4.77352607 17.5577679,4.77352607 C15.4875675,4.77298188 14.4097807,4.98251962 13.0917365,6.16866571 C12.3930666,6.79741902 11.8404199,7.47865352 11.0894257,8.53676342 C11.0539627,8.5867288 10.5710348,9.27362964 10.4428241,9.45145983 C10.263162,9.70065368 10.0538311,9.9958849 9.95173264,9.9958849 C7.55584978,9.99588492 8.12926922,9.99588474 6.11621259,9.9958848 C4.42501581,9.99588485 4.42501581,9.99588485 3.99999987,9.99588487 C2.34314563,9.99588494 0.999999931,11.3390307 1,12.995885 C1.00000007,14.6527392 2.34314588,15.9958849 4.00000013,15.9958849 C4.42501603,15.9958848 4.42501603,15.9958848 6.11621276,15.9958848 Z"/>
      <rect width="1" height="6" x="13.846" y="5.592" fill="#6468A0" transform="rotate(-41 14.346 8.592)"/>
      <rect width="1" height="6" x="12" y="9" fill="#6468A0" transform="rotate(-37 12.5 12)"/>
      <rect width="1" height="6" x="9" y="10" fill="#6468A0"/>
      <rect width="1" height="6" x="5" y="10" fill="#6468A0"/>
      <rect width="1" height="6" x="17.058" y="5" fill="#6468A0"/>
      <polygon fill="#6468A0" points="20.666 5.798 21.666 6.307 21.666 12.373 20.666 12.373" transform="rotate(32 21.166 9.086)"/>
      <rect width="1" height="6.583" x="23.175" y="8.868" fill="#6468A0" transform="rotate(27 23.675 12.16)"/>
      <rect width="1" height="6" x="28.615" y="10" fill="#6468A0"/>
    </g>
    <g transform="translate(0 140)">
      <path fill="#8984AB" stroke="#6468A0" d="M6.11621276,15.9958848 C8.12926933,15.9958847 8.12926933,15.9958847 10.5251521,15.9958847 C10.6272505,15.9958847 10.6272505,15.9958847 10.7293194,15.9958847 C12.3159243,15.9958847 13.4433496,15.233279 14.5106038,13.9900893 C14.7689203,13.6891897 15.0180431,13.3650546 15.3097837,12.9604061 C15.4628258,12.7481345 15.9650461,12.0337927 15.9822993,12.0094839 C16.4929579,11.2899938 16.703763,10.7875657 16.9999084,10.7875657 C16.9000611,10.8774212 17.0357191,10.7733925 17.5038819,10.7735166 C17.654397,10.7735261 17.7319763,10.7729835 17.8863122,10.7715262 C18.3394709,10.7672675 17.6947423,10.5520023 18.2847817,10.6378777 C18.981262,11.1978288 18.9421604,11.3316581 19.4611342,12.0376401 C19.5490577,12.1572462 20.0511912,12.8500879 20.1998898,13.0508184 C20.5208667,13.4841098 20.7868303,13.8210678 21.0618383,14.1312782 C22.0889815,15.2899008 23.131928,15.9958847 24.6362903,15.9958847 C25.1241496,15.9958847 25.1241496,15.9958847 25.6166924,15.9958847 C27.4324875,15.9958848 27.4324875,15.9958848 29.0136199,15.9958848 C30.6848661,15.9958848 30.6848661,15.9958848 31.1155364,15.9958849 C32.7723906,15.9958849 34.1155364,14.6527392 34.1155365,12.995885 C34.1155366,11.3390307 32.7723909,9.99588493 31.1155366,9.99588487 C30.6848664,9.99588485 30.6848664,9.99588485 29.0136201,9.9958848 C27.4324876,9.99588475 27.4324876,9.99588475 25.6166924,9.99588473 C25.1241496,9.99588473 25.3868312,9.93886413 25.2974243,9.8380127 C25.1605405,9.68360711 25.2465947,9.78367219 25.0211252,9.47930761 C24.8954768,9.30969295 24.4021795,8.62904342 24.295467,8.48387787 C23.5461732,7.46458183 22.9710036,6.77754236 22.2776534,6.15937618 C21.5177784,5.48189881 20.647824,5.07626311 19.6916886,4.89385719 C19.0907079,4.77920559 18.6864884,4.7637413 17.8299277,4.77179111 C17.6854204,4.77313497 17.6295042,4.77352607 17.5577679,4.77352607 C15.4875675,4.77298188 14.4097807,4.98251962 13.0917365,6.16866571 C12.3930666,6.79741902 11.8404199,7.47865352 11.0894257,8.53676342 C11.0539627,8.5867288 10.5710348,9.27362964 10.4428241,9.45145983 C10.263162,9.70065368 10.0538311,9.9958849 9.95173264,9.9958849 C7.55584978,9.99588492 8.12926922,9.99588474 6.11621259,9.9958848 C4.42501581,9.99588485 4.42501581,9.99588485 3.99999987,9.99588487 C2.34314563,9.99588494 0.999999931,11.3390307 1,12.995885 C1.00000007,14.6527392 2.34314588,15.9958849 4.00000013,15.9958849 C4.42501603,15.9958848 4.42501603,15.9958848 6.11621276,15.9958848 Z"/>
      <rect width="1" height="6" x="13.846" y="5.592" fill="#6468A0" transform="rotate(-41 14.346 8.592)"/>
      <rect width="1" height="6" x="12" y="9" fill="#6468A0" transform="rotate(-37 12.5 12)"/>
      <rect width="1" height="6" x="9" y="10" fill="#6468A0"/>
      <rect width="1" height="6" x="5" y="10" fill="#6468A0"/>
      <rect width="1" height="6" x="17.058" y="5" fill="#6468A0"/>
      <polygon fill="#6468A0" points="20.666 5.798 21.666 6.307 21.666 12.373 20.666 12.373" transform="rotate(32 21.166 9.086)"/>
      <rect width="1" height="6.583" x="23.175" y="8.868" fill="#6468A0" transform="rotate(27 23.675 12.16)"/>
      <rect width="1" height="6" x="28.615" y="10" fill="#6468A0"/>
    </g>
    <g transform="translate(0 80)">
      <path fill="#8984AB" stroke="#6468A0" d="M10.5962333,15.9951855 C12.2656379,15.9951855 13.3451137,15.0629594 14.0710202,13.7440335 C14.406035,13.135333 14.6435062,12.497925 14.9499678,11.5127309 C15.0068697,11.3298062 15.2384684,10.5670793 15.2983055,10.3751637 C15.6422092,9.27216253 15.4978237,8.92884143 15.8471717,8.94304937 C16.1429143,8.95507718 16.29108,8.95955127 16.4912724,8.95955127 C16.8390894,8.95955127 17.2726795,9.11136174 17.463228,9.28124796 C17.5054492,9.31889093 17.7068397,9.75191751 17.9377521,10.5700736 C18.0147032,10.8427229 18.6890134,13.2635742 18.9779833,13.8207326 C19.6304295,15.0787041 20.6986297,15.9951855 22.3197365,15.9951855 L28.247488,15.9951855 C29.9043423,15.9951855 31.247488,14.6520398 31.247488,12.9951855 C31.247488,11.3383313 29.9043423,9.99518552 28.247488,9.99518552 C28.247488,9.99518552 25.3484612,10.1239748 24.5573082,9.99518538 C24.142351,9.92763573 23.8090109,9.28344138 23.7121727,8.94032947 C23.1893026,7.08772453 22.6015825,5.82401796 21.4560997,4.80274647 C20.1199828,3.61151251 18.2578985,2.95955127 16.4912724,2.95955127 C16.3985561,2.95955127 16.3066305,2.95677543 16.0909894,2.94800534 C15.3366157,2.91732505 14.9824129,2.91942173 14.436086,3.00549758 C13.5190782,3.14997561 12.676249,3.52054397 11.9517967,4.17249958 C10.8045168,5.20496998 10.2410562,6.43780566 9.57026746,8.58922426 C9.50176043,8.80894667 9.08676004,9.99518538 8.7102561,9.99518538 C7.87698364,9.86470222 4,9.99518552 4,9.99518552 C2.34314575,9.99518552 1,11.3383313 1,12.9951855 C1,14.6520398 2.34314575,15.9951855 4,15.9951855 L10.5962333,15.9951855 Z"/>
      <polygon fill="#6468A0" points="12.601 4.671 13.601 4.671 13.441 11.129 12.601 11.477" transform="rotate(-52 13.1 8.074)"/>
      <polygon fill="#6468A0" points="11.186 8.427 12.186 8.427 12.186 15.23 11.271 15.23" transform="rotate(-43 11.686 11.829)"/>
      <rect width="1" height="6" x="8" y="10" fill="#6468A0" transform="rotate(-12 8.5 13)"/>
      <rect width="1" height="6" x="5" y="10" fill="#6468A0"/>
      <rect width="1" height="6" x="16" y="3" fill="#6468A0"/>
      <polygon fill="#6468A0" points="19.934 5.175 20.934 5.175 20.934 11.722 19.934 11.175" transform="rotate(51 20.434 8.448)"/>
      <rect width="1" height="7.084" x="22.027" y="8.861" fill="#6468A0" transform="rotate(26 22.527 12.403)"/>
      <rect width="1" height="6" x="26.553" y="10" fill="#6468A0"/>
    </g>
    <g transform="translate(0 120)">
      <path fill="#8984AB" stroke="#6468A0" d="M10.5962333,15.9951855 C12.2656379,15.9951855 13.3451137,15.0629594 14.0710202,13.7440335 C14.406035,13.135333 14.6435062,12.497925 14.9499678,11.5127309 C15.0068697,11.3298062 15.2384684,10.5670793 15.2983055,10.3751637 C15.6422092,9.27216253 15.4978237,8.92884143 15.8471717,8.94304937 C16.1429143,8.95507718 16.29108,8.95955127 16.4912724,8.95955127 C16.8390894,8.95955127 17.2726795,9.11136174 17.463228,9.28124796 C17.5054492,9.31889093 17.7068397,9.75191751 17.9377521,10.5700736 C18.0147032,10.8427229 18.6890134,13.2635742 18.9779833,13.8207326 C19.6304295,15.0787041 20.6986297,15.9951855 22.3197365,15.9951855 L28.247488,15.9951855 C29.9043423,15.9951855 31.247488,14.6520398 31.247488,12.9951855 C31.247488,11.3383313 29.9043423,9.99518552 28.247488,9.99518552 C28.247488,9.99518552 25.3484612,10.1239748 24.5573082,9.99518538 C24.142351,9.92763573 23.8090109,9.28344138 23.7121727,8.94032947 C23.1893026,7.08772453 22.6015825,5.82401796 21.4560997,4.80274647 C20.1199828,3.61151251 18.2578985,2.95955127 16.4912724,2.95955127 C16.3985561,2.95955127 16.3066305,2.95677543 16.0909894,2.94800534 C15.3366157,2.91732505 14.9824129,2.91942173 14.436086,3.00549758 C13.5190782,3.14997561 12.676249,3.52054397 11.9517967,4.17249958 C10.8045168,5.20496998 10.2410562,6.43780566 9.57026746,8.58922426 C9.50176043,8.80894667 9.08676004,9.99518538 8.7102561,9.99518538 C7.87698364,9.86470222 4,9.99518552 4,9.99518552 C2.34314575,9.99518552 1,11.3383313 1,12.9951855 C1,14.6520398 2.34314575,15.9951855 4,15.9951855 L10.5962333,15.9951855 Z"/>
      <polygon fill="#6468A0" points="12.601 4.671 13.601 4.671 13.441 11.129 12.601 11.477" transform="rotate(-52 13.1 8.074)"/>
      <polygon fill="#6468A0" points="11.186 8.427 12.186 8.427 12.186 15.23 11.271 15.23" transform="rotate(-43 11.686 11.829)"/>
      <rect width="1" height="6" x="8" y="10" fill="#6468A0" transform="rotate(-12 8.5 13)"/>
      <rect width="1" height="6" x="5" y="10" fill="#6468A0"/>
      <rect width="1" height="6" x="16" y="3" fill="#6468A0"/>
      <polygon fill="#6468A0" points="19.934 5.175 20.934 5.175 20.934 11.722 19.934 11.175" transform="rotate(51 20.434 8.448)"/>
      <rect width="1" height="7.084" x="22.027" y="8.861" fill="#6468A0" transform="rotate(26 22.527 12.403)"/>
      <rect width="1" height="6" x="26.553" y="10" fill="#6468A0"/>
    </g>
    <g transform="translate(0 100)">
      <path fill="#8984AB" stroke="#6468A0" d="M6.6003177,16.0031446 C8.072034,16.0031446 8.072034,16.0031446 9.70148829,16.0031446 C10.7186959,16.0031446 10.7186959,16.0031446 11.6975293,16.0031446 C13.7242356,16.0031446 14.7102033,14.7887185 15.3275607,13.0778037 C15.579992,12.3782277 15.7472262,11.6559934 15.9878757,10.3966383 C15.9946913,10.3609715 16.147345,9.55358383 16.1921016,9.32324029 C16.3689427,8.41311149 16.4332275,7.46636057 16.6726685,7.1887207 C16.9121094,6.91108084 17.0414949,7.31418775 17.0794218,7.46636075 C17.176611,7.85631073 17.2493556,8.40206049 17.3077498,9.16176986 C17.3305285,9.45812181 17.3374056,9.56575548 17.3818311,10.2929723 C17.4580598,11.5407895 17.5115363,12.1190002 17.6479635,12.7661605 C18.0344193,14.5993651 18.9322493,16.0031446 21.1677074,16.0031446 L27.8075886,16.0031446 C29.4644428,16.0031446 30.8075886,14.6599988 30.8075886,13.0031446 C30.8075886,11.3462903 29.4644428,10.0031446 27.8075886,10.0031446 C27.8075886,10.0031446 23.5654991,10.0962895 23.3706665,9.92711638 C23.3565582,9.43227329 23.3163676,9.04363583 23.2901038,8.70194326 C23.0747433,5.9000987 22.6666985,4.26291131 21.208493,2.96282744 C19.8654658,1.76543244 18.5410474,1.23117979 16.7933788,1.23117979 C16.6991073,1.23102144 16.6991073,1.23102144 16.600422,1.2304973 C15.5280253,1.22469911 15.0525909,1.26532599 14.2602942,1.57859674 C13.6841042,1.80641985 13.1707309,2.13982091 12.6818044,2.57982002 C11.3492104,3.77905994 10.8760194,5.22588527 10.3022536,8.17882286 C10.2540563,8.42687494 10.0988185,9.24792938 10.0945097,9.27047806 C9.91344636,10.2180099 9.61925839,10.0031443 8.60205078,10.0031443 C6.97259647,10.0031443 8.07203391,10.0031446 6.60031759,10.0031446 C4.54604209,10.0031447 4.54604209,10.0031447 3.99999992,10.0031447 C2.34314567,10.0031447 0.999999958,11.3462905 1,13.0031448 C1.00000004,14.659999 2.34314583,16.0031447 4.00000008,16.0031447 C4.54604223,16.0031447 4.54604223,16.0031447 6.6003177,16.0031446 Z"/>
      <rect width="1" height="6" x="14.474" y="1.829" fill="#6468A0" transform="rotate(-31 14.974 4.829)"/>
      <rect width="1" height="6.696" x="12.805" y="5.319" fill="#6468A0" transform="rotate(-69 13.305 8.667)"/>
      <rect width="1" height="6" x="9.855" y="10.015" fill="#6468A0" transform="rotate(-17 10.355 13.015)"/>
      <rect width="1" height="6" x="5" y="10" fill="#6468A0"/>
      <polygon fill="#6468A0" points="18.184 1.812 19.184 1.812 19.184 8.67 18.184 7.812" transform="rotate(29 18.684 5.241)"/>
      <polygon fill="#6468A0" points="20.017 5.515 21.017 5.96 21.017 12.402 20.017 12.142" transform="rotate(64 20.517 8.959)"/>
      <polygon fill="#6468A0" points="21.396 8.38 22.396 9.534 22.396 16.029 21.396 16.029" transform="rotate(22 21.896 12.204)"/>
      <rect width="1" height="6" x="26" y="10" fill="#6468A0"/>
    </g>
  </g>
</svg>
