<svg xmlns="http://www.w3.org/2000/svg" width="371" height="39" viewBox="0 0 371 39" xmlns:xlink="http://www.w3.org/1999/xlink">
  <defs>
    <rect id="a" width="4" height="5" x="24.102" y="3.596" rx="1"/>
    <mask id="E" width="4" height="5" x="0" y="0" fill="white">
      <use xlink:href="#a"/>
    </mask>
    <rect id="b" width="4" height="5" x="20.865" y="3.735" rx="1"/>
    <mask id="F" width="4" height="5" x="0" y="0" fill="white">
      <use xlink:href="#b"/>
    </mask>
    <rect id="c" width="4" height="5" x="17.78" y="3.738" rx="1"/>
    <mask id="G" width="4" height="5" x="0" y="0" fill="white">
      <use xlink:href="#c"/>
    </mask>
    <rect id="d" width="4" height="5" x="14.366" y="3.794" rx="1"/>
    <mask id="H" width="4" height="5" x="0" y="0" fill="white">
      <use xlink:href="#d"/>
    </mask>
    <rect id="e" width="4" height="5" x="10.786" y="3.594" rx="1"/>
    <mask id="I" width="4" height="5" x="0" y="0" fill="white">
      <use xlink:href="#e"/>
    </mask>
    <rect id="f" width="4" height="5" x="7.362" y="3.292" rx="1"/>
    <mask id="J" width="4" height="5" x="0" y="0" fill="white">
      <use xlink:href="#f"/>
    </mask>
    <rect id="g" width="4" height="5" x="16.828" y="1.163" rx="1"/>
    <mask id="K" width="4" height="5" x="0" y="0" fill="white">
      <use xlink:href="#g"/>
    </mask>
    <rect id="h" width="4" height="5" x="13.591" y="1.302" rx="1"/>
    <mask id="L" width="4" height="5" x="0" y="0" fill="white">
      <use xlink:href="#h"/>
    </mask>
    <rect id="i" width="4" height="5" x="10.506" y="1.305" rx="1"/>
    <mask id="M" width="4" height="5" x="0" y="0" fill="white">
      <use xlink:href="#i"/>
    </mask>
    <rect id="j" width="4" height="5" x="7.092" y="1.361" rx="1"/>
    <mask id="N" width="4" height="5" x="0" y="0" fill="white">
      <use xlink:href="#j"/>
    </mask>
    <rect id="k" width="4" height="5" x="3.512" y="1.16" rx="1"/>
    <mask id="O" width="4" height="5" x="0" y="0" fill="white">
      <use xlink:href="#k"/>
    </mask>
    <rect id="l" width="4" height="5" x=".088" y=".859" rx="1"/>
    <mask id="P" width="4" height="5" x="0" y="0" fill="white">
      <use xlink:href="#l"/>
    </mask>
    <rect id="m" width="4.113" height="5.088" x="17.302" y="1.184" rx="1"/>
    <mask id="Q" width="4.113" height="5.088" x="0" y="0" fill="white">
      <use xlink:href="#m"/>
    </mask>
    <rect id="n" width="4.113" height="5.088" x="13.974" y="1.325" rx="1"/>
    <mask id="R" width="4.113" height="5.088" x="0" y="0" fill="white">
      <use xlink:href="#n"/>
    </mask>
    <rect id="o" width="4.113" height="5.088" x="10.802" y="1.328" rx="1"/>
    <mask id="S" width="4.113" height="5.088" x="0" y="0" fill="white">
      <use xlink:href="#o"/>
    </mask>
    <rect id="p" width="4.113" height="5.088" x="7.292" y="1.385" rx="1"/>
    <mask id="T" width="4.113" height="5.088" x="0" y="0" fill="white">
      <use xlink:href="#p"/>
    </mask>
    <rect id="q" width="4.113" height="5.088" x="3.611" y="1.181" rx="1"/>
    <mask id="U" width="4.113" height="5.088" x="0" y="0" fill="white">
      <use xlink:href="#q"/>
    </mask>
    <rect id="r" width="4.113" height="5.088" x=".183" y=".861" rx="1"/>
    <mask id="V" width="4.113" height="5.088" x="0" y="0" fill="white">
      <use xlink:href="#r"/>
    </mask>
    <rect id="s" width="4" height="5" x="16.828" y="1.163" rx="1"/>
    <mask id="W" width="4" height="5" x="0" y="0" fill="white">
      <use xlink:href="#s"/>
    </mask>
    <rect id="t" width="4" height="5" x="13.591" y="1.302" rx="1"/>
    <mask id="X" width="4" height="5" x="0" y="0" fill="white">
      <use xlink:href="#t"/>
    </mask>
    <rect id="u" width="4" height="5" x="10.506" y="1.305" rx="1"/>
    <mask id="Y" width="4" height="5" x="0" y="0" fill="white">
      <use xlink:href="#u"/>
    </mask>
    <rect id="v" width="4" height="5" x="7.092" y="1.361" rx="1"/>
    <mask id="Z" width="4" height="5" x="0" y="0" fill="white">
      <use xlink:href="#v"/>
    </mask>
    <rect id="w" width="4" height="5" x="3.512" y="1.16" rx="1"/>
    <mask id="aa" width="4" height="5" x="0" y="0" fill="white">
      <use xlink:href="#w"/>
    </mask>
    <rect id="x" width="4" height="5" x=".088" y=".859" rx="1"/>
    <mask id="ab" width="4" height="5" x="0" y="0" fill="white">
      <use xlink:href="#x"/>
    </mask>
    <rect id="y" width="4" height="5" x="24.102" y="3.596" rx="1"/>
    <mask id="ac" width="4" height="5" x="0" y="0" fill="white">
      <use xlink:href="#y"/>
    </mask>
    <rect id="z" width="4" height="5" x="20.865" y="3.735" rx="1"/>
    <mask id="ad" width="4" height="5" x="0" y="0" fill="white">
      <use xlink:href="#z"/>
    </mask>
    <rect id="A" width="4" height="5" x="17.78" y="3.738" rx="1"/>
    <mask id="ae" width="4" height="5" x="0" y="0" fill="white">
      <use xlink:href="#A"/>
    </mask>
    <rect id="B" width="4" height="5" x="14.366" y="3.794" rx="1"/>
    <mask id="af" width="4" height="5" x="0" y="0" fill="white">
      <use xlink:href="#B"/>
    </mask>
    <rect id="C" width="4" height="5" x="10.786" y="3.594" rx="1"/>
    <mask id="ag" width="4" height="5" x="0" y="0" fill="white">
      <use xlink:href="#C"/>
    </mask>
    <rect id="D" width="4" height="5" x="7.362" y="3.292" rx="1"/>
    <mask id="ah" width="4" height="5" x="0" y="0" fill="white">
      <use xlink:href="#D"/>
    </mask>
  </defs>
  <g fill="none" fill-rule="evenodd">
    <g fill="#E06E90" stroke="#B2555E" stroke-width="1.2" transform="translate(3.136 13.61)" stroke-linecap="round" stroke-linejoin="round">
      <path d="M8.75636675,7.61555378 C8.75636675,7.61555378 11.2928569,13.006984 17.0479947,12.6132417 C22.8031325,12.2194994 30.8166311,7.47525481 27.7872431,3.98053502 C24.7578551,0.485815233 8.75636675,7.61555378 8.75636675,7.61555378 Z"/>
      <path d="M28.0644012,4.33962832 C24.9551396,5.9671451 21.3470667,8.9456853 1.54883749,7.39175142 C-0.599529778,5.47850089 3.32268115,0.914680445 7.64483687,1.00147062 C11.0863551,0.993264467 11.4041406,1.38591106 13.3260757,3.14639091 C20.1088005,-1.93063158 26.3991029,1.62276445 28.0644012,4.33962832 Z"/>
    </g>
    <g transform="translate(44.036 9.851)">
      <polygon fill="#212121" points="15.13 5.081 22.379 3.337 26.378 4.5 27.825 7.508 27.274 11.853 24.406 13.402 17.602 12.151 14.453 10.19"/>
      <rect width=".588" height="6" x="14.351" y="6.072" fill="#E06E90"/>
      <rect width=".588" height="6" x="13.813" y="6.072" fill="#B2555E"/>
      <path fill="#E06E90" stroke="#B2555E" stroke-width="1.2" d="M11.9608202,2.50085861 C11.9608202,2.50085861 23.7260821,-2.05058316 27.7756205,3.70244958 C30.2515056,7.38377762 29.557785,17.8608884 21.7820617,16.0765641 C14.7207963,14.6335197 14.0416472,15.9948155 11.7453648,15.4639283 C8.84327326,14.4444821 8.85134894,11.2595129 11.2547776,10.3989142 C17.0819967,8.84498915 20.5849173,11.0184243 23.2983456,11.9595364 C25.2504934,12.6969838 27.8284078,7.19252189 25.3135231,5.87854975 C22.7334419,4.6331224 20.1237306,5.96934339 17.4777504,6.73713236 C14.8317701,7.50492132 5.84739315,8.19331524 2.25589205,7.37801366 C-0.718134264,6.26027333 -0.00156543669,2.25808477 3.44367155,1.53843016 C8.09834107,0.657721457 11.9608202,2.50085861 11.9608202,2.50085861 Z" stroke-linecap="round" stroke-linejoin="round"/>
    </g>
    <g transform="translate(85.264 7.715)">
      <polygon fill="#212121" points="16.707 4.993 27.895 4.448 29.703 9.431 26.366 19.074 17.155 17.564"/>
      <use fill="#FFFFFF" stroke="#C4C4C4" stroke-width=".8" mask="url(#E)" transform="rotate(-5 26.102 6.096)" xlink:href="#a"/>
      <use fill="#FFFFFF" stroke="#C4C4C4" stroke-width=".8" mask="url(#F)" xlink:href="#b"/>
      <path fill="#E06E90" stroke="#B2555E" stroke-width="1.2" d="M15.5768073,5.17424669 C15.5768073,5.17424669 17.2250967,14.7401159 15.6801592,17.4462988 C14.1352217,20.1524817 17.9685269,17.8838021 17.9685269,17.8838021 C17.9685269,17.8838021 18.48833,5.55128966 16.8495229,4.66265726 C15.2107157,3.77402486 15.5768073,5.17424669 15.5768073,5.17424669 Z" stroke-linecap="round" stroke-linejoin="round"/>
      <use fill="#FFFFFF" stroke="#C4C4C4" stroke-width=".8" mask="url(#G)" xlink:href="#c"/>
      <use fill="#FFFFFF" stroke="#C4C4C4" stroke-width=".8" mask="url(#H)" transform="rotate(2 16.366 6.294)" xlink:href="#d"/>
      <use fill="#FFFFFF" stroke="#C4C4C4" stroke-width=".8" mask="url(#I)" transform="rotate(2 12.786 6.094)" xlink:href="#e"/>
      <path fill="#CC361D" stroke="#8C1501" stroke-width="1.2" d="M24.5952602,16.5872199 C24.5952602,16.5872199 22.8101808,18.5742803 17.1689995,18.2127775 C11.5278183,17.8512747 14.9096931,14.2597026 18.0744112,13.2915122 C21.2391293,12.3233217 26.4792687,12.8493848 27.6723727,14.3031184 C28.8654768,15.7568519 26.5086003,18.2598984 26.5086003,18.2598984 L25.34161,18.6297404 L24.1417498,18.7226031 L24.5952602,16.5872199 Z" stroke-linecap="round" stroke-linejoin="round"/>
      <use fill="#FFFFFF" stroke="#C4C4C4" stroke-width=".8" mask="url(#J)" transform="rotate(2 9.362 5.792)" xlink:href="#f"/>
      <path fill="#E06E90" stroke="#B2555E" stroke-width="1.2" d="M12.768612,1.8638836 C12.768612,1.8638836 24.9001313,-2.16774754 28.9496697,3.58528521 C31.4255548,7.26661324 31.6924217,23.3266425 23.9166984,21.5423182 C16.855433,20.0992738 13.6309292,21.7311954 11.3346468,21.2003081 C8.43255522,20.1808619 9.11766633,17.6863424 11.521095,16.8257438 C17.3483141,15.2718187 22.0891815,16.6752474 24.8026098,17.6163595 C26.7547576,18.3538069 29.1062673,6.9238211 26.5913825,5.60984896 C24.0113014,4.36442161 21.0532286,5.66770534 18.4072483,6.4354943 C15.7612681,7.20328327 4.78956501,7.89413563 1.19806391,7.07883405 C-0.334930769,4.62870969 2.39281777,1.77002922 4.2567719,1.10269922 C8.91144143,0.22199052 12.768612,1.8638836 12.768612,1.8638836 Z" stroke-linecap="round" stroke-linejoin="round"/>
    </g>
    <g transform="translate(127.519 5.397)">
      <polygon fill="#212121" points="17.013 6.573 28.201 6.028 30.009 11.011 26.785 24.704 16.744 23.195"/>
      <path fill="#E06E90" stroke="#B2555E" stroke-width="1.2" d="M16.6710786,6.31103612 C16.6710786,6.31103612 17.101501,19.7363321 15.5565635,22.442515 C14.011626,25.1486979 17.7265395,23.8410275 17.7265395,23.8410275 C17.7265395,23.8410275 19.4566123,7.99904858 17.8178052,7.11041618 C16.178998,6.22178378 16.6710786,6.31103612 16.6710786,6.31103612 Z" stroke-linecap="round" stroke-linejoin="round"/>
      <g fill="#FFFFFF" stroke="#C4C4C4" stroke-width=".8" transform="rotate(-1 166.616 -437.799)">
        <use mask="url(#K)" transform="rotate(-5 18.828 3.663)" xlink:href="#g"/>
        <use mask="url(#L)" xlink:href="#h"/>
        <use mask="url(#M)" xlink:href="#i"/>
        <use mask="url(#N)" transform="rotate(2 9.092 3.861)" xlink:href="#j"/>
        <use mask="url(#O)" transform="rotate(2 5.512 3.66)" xlink:href="#k"/>
        <use mask="url(#P)" transform="rotate(2 2.088 3.359)" xlink:href="#l"/>
      </g>
      <path fill="#CC361D" stroke="#8C1501" stroke-width="1.2" d="M24.4690423,17.1703801 C24.4690423,17.1703801 22.7204112,20.5952451 17.07923,20.2337423 C11.4380487,19.8722395 13.3266475,15.516348 16.4913656,14.5481575 C19.6560838,13.5799671 25.7823255,12.9491471 26.9754296,14.4028807 C28.1685336,15.8566143 25.3291197,24.779797 25.3291197,24.779797 L22.6456009,23.70832 L22.7405295,19.1338641 L24.4690423,17.1703801 Z" stroke-linecap="round" stroke-linejoin="round"/>
      <path fill="#E06E90" stroke="#B2555E" stroke-width="1.2" d="M13.1718961,1.71725678 C13.1718961,1.71725678 25.3034155,-2.31437436 29.3529538,3.43865838 C31.828839,7.11998642 31.4907119,28.5902041 23.7149885,26.8058797 C16.6537232,25.3628353 13.2823917,26.8702382 10.9861092,26.339351 C8.08401769,25.3199047 9.41319838,22.2699918 11.816627,21.4093932 C17.6438461,19.8554681 21.9684397,22.2522569 24.681868,23.193369 C28.0361505,23.0425122 29.5095514,6.77719427 26.9946666,5.46322213 C24.4145855,4.21779478 21.1845937,5.94836524 18.5386134,6.71615421 C15.8926332,7.48394317 4.94558333,7.61162967 1.35408223,6.79632809 C-0.426795834,3.79675725 2.55062177,1.67112965 5.99585875,0.951475049 C10.6505283,0.0707663451 13.1718961,1.71725678 13.1718961,1.71725678 Z" stroke-linecap="round" stroke-linejoin="round"/>
    </g>
    <g transform="translate(170.262 1.159)">
      <polygon fill="#212121" points="17.639 7.258 28.173 6.552 29.981 11.535 26.291 31.765 16.145 29.727"/>
      <path fill="#E06E90" stroke="#B2555E" stroke-width="1.2" d="M16.6756811,9.31905027 C17.1409667,14.5250408 16.8020979,26.2955866 15.2571604,29.0017695 C13.7122229,31.7079524 17.5972047,29.3106365 17.5972047,29.3106365 C17.5972047,29.3106365 19.7021373,10.7006263 18.0633302,9.81199392 C16.4245231,8.92336152 19.4409901,8.76156358 16.6756811,9.31905027 Z" stroke-linecap="round" stroke-linejoin="round"/>
      <g fill="#FFFFFF" stroke="#C4C4C4" stroke-width=".8" transform="rotate(-1 299.541 -347.127)">
        <use mask="url(#Q)" transform="rotate(-5 19.359 3.728)" xlink:href="#m"/>
        <use mask="url(#R)" xlink:href="#n"/>
        <use mask="url(#S)" xlink:href="#o"/>
        <use mask="url(#T)" transform="rotate(2 9.349 3.93)" xlink:href="#p"/>
        <use mask="url(#U)" transform="rotate(2 5.667 3.725)" xlink:href="#q"/>
        <use mask="url(#V)" transform="rotate(2 2.24 3.405)" xlink:href="#r"/>
      </g>
      <path fill="#CC361D" stroke="#8C1501" stroke-width="1.2" d="M22.8851946,19.8720744 C22.8851946,19.8720744 21.6449447,24.5859936 16.0037634,24.2244908 C10.3625822,23.862988 12.1024341,18.567422 16.1106427,17.2707455 C19.7294718,16.0715317 25.002811,15.580452 26.4011875,17.269333 C27.7995641,18.9582141 26.5721002,29.4055465 26.5721002,29.4055465 L21.5167571,31.4564988 L22.2215954,21.4319751 L22.8851946,19.8720744 Z" stroke-linecap="round" stroke-linejoin="round"/>
      <path fill="#E06E90" stroke="#B2555E" stroke-width="1.2" d="M12.9053984,3.26161877 C15.207999,1.17370867 25.7766061,-1.38615492 29.8261445,4.36687783 C32.3020297,8.04820586 30.4700245,36.2249345 22.6943012,34.4406102 C15.6330358,32.9975658 11.4522268,34.25018 9.15594443,33.7192927 C6.25385288,32.6998465 9.16036015,29.7769151 11.5637888,28.9163165 C17.3910079,27.3623914 20.8039367,29.4538191 23.517365,30.3949312 C26.8716475,30.2440744 29.2771905,8.96601912 26.7623057,7.65204698 C24.1822246,6.40661963 22.1759727,7.16413031 19.5299924,7.93191927 C16.8840121,8.69970824 4.67908566,9.15599166 1.08758456,8.34069008 C-0.693293496,5.34111924 2.28412411,3.21549164 5.72936109,2.49583704 C10.3840306,1.61512833 11.7210334,2.55029102 12.9053984,3.26161877 Z" stroke-linecap="round" stroke-linejoin="round"/>
    </g>
    <g transform="translate(211.745 6.314)">
      <polygon fill="#212121" points="17.013 6.573 28.201 6.028 30.009 11.011 26.785 24.704 16.744 23.195"/>
      <path fill="#E06E90" stroke="#B2555E" stroke-width="1.2" d="M16.6710786,6.31103612 C16.6710786,6.31103612 17.101501,19.7363321 15.5565635,22.442515 C14.011626,25.1486979 17.7265395,23.8410275 17.7265395,23.8410275 C17.7265395,23.8410275 19.4566123,7.99904858 17.8178052,7.11041618 C16.178998,6.22178378 16.6710786,6.31103612 16.6710786,6.31103612 Z" stroke-linecap="round" stroke-linejoin="round"/>
      <g fill="#FFFFFF" stroke="#C4C4C4" stroke-width=".8" transform="rotate(-1 166.616 -437.799)">
        <use mask="url(#W)" transform="rotate(-5 18.828 3.663)" xlink:href="#s"/>
        <use mask="url(#X)" xlink:href="#t"/>
        <use mask="url(#Y)" xlink:href="#u"/>
        <use mask="url(#Z)" transform="rotate(2 9.092 3.861)" xlink:href="#v"/>
        <use mask="url(#aa)" transform="rotate(2 5.512 3.66)" xlink:href="#w"/>
        <use mask="url(#ab)" transform="rotate(2 2.088 3.359)" xlink:href="#x"/>
      </g>
      <path fill="#CC361D" stroke="#8C1501" stroke-width="1.2" d="M24.4690423,17.1703801 C24.4690423,17.1703801 22.7204112,20.5952451 17.07923,20.2337423 C11.4380487,19.8722395 13.3266475,15.516348 16.4913656,14.5481575 C19.6560838,13.5799671 25.7823255,12.9491471 26.9754296,14.4028807 C28.1685336,15.8566143 25.3291197,24.779797 25.3291197,24.779797 L22.6456009,23.70832 L22.7405295,19.1338641 L24.4690423,17.1703801 Z" stroke-linecap="round" stroke-linejoin="round"/>
      <path fill="#E06E90" stroke="#B2555E" stroke-width="1.2" d="M13.1718961,1.71725678 C13.1718961,1.71725678 25.3034155,-2.31437436 29.3529538,3.43865838 C31.828839,7.11998642 31.4907119,28.5902041 23.7149885,26.8058797 C16.6537232,25.3628353 13.2823917,26.8702382 10.9861092,26.339351 C8.08401769,25.3199047 9.41319838,22.2699918 11.816627,21.4093932 C17.6438461,19.8554681 21.9684397,22.2522569 24.681868,23.193369 C28.0361505,23.0425122 29.5095514,6.77719427 26.9946666,5.46322213 C24.4145855,4.21779478 21.1845937,5.94836524 18.5386134,6.71615421 C15.8926332,7.48394317 4.94558333,7.61162967 1.35408223,6.79632809 C-0.426795834,3.79675725 2.55062177,1.67112965 5.99585875,0.951475049 C10.6505283,0.0707663451 13.1718961,1.71725678 13.1718961,1.71725678 Z" stroke-linecap="round" stroke-linejoin="round"/>
    </g>
    <g transform="translate(254.481 8.713)">
      <polygon fill="#212121" points="16.707 4.993 27.895 4.448 29.703 9.431 26.366 19.074 17.155 17.564"/>
      <use fill="#FFFFFF" stroke="#C4C4C4" stroke-width=".8" mask="url(#ac)" transform="rotate(-5 26.102 6.096)" xlink:href="#y"/>
      <use fill="#FFFFFF" stroke="#C4C4C4" stroke-width=".8" mask="url(#ad)" xlink:href="#z"/>
      <path fill="#E06E90" stroke="#B2555E" stroke-width="1.2" d="M15.5768073,5.17424669 C15.5768073,5.17424669 17.2250967,14.7401159 15.6801592,17.4462988 C14.1352217,20.1524817 17.9685269,17.8838021 17.9685269,17.8838021 C17.9685269,17.8838021 18.48833,5.55128966 16.8495229,4.66265726 C15.2107157,3.77402486 15.5768073,5.17424669 15.5768073,5.17424669 Z" stroke-linecap="round" stroke-linejoin="round"/>
      <use fill="#FFFFFF" stroke="#C4C4C4" stroke-width=".8" mask="url(#ae)" xlink:href="#A"/>
      <use fill="#FFFFFF" stroke="#C4C4C4" stroke-width=".8" mask="url(#af)" transform="rotate(2 16.366 6.294)" xlink:href="#B"/>
      <use fill="#FFFFFF" stroke="#C4C4C4" stroke-width=".8" mask="url(#ag)" transform="rotate(2 12.786 6.094)" xlink:href="#C"/>
      <path fill="#CC361D" stroke="#8C1501" stroke-width="1.2" d="M24.5952602,16.5872199 C24.5952602,16.5872199 22.8101808,18.5742803 17.1689995,18.2127775 C11.5278183,17.8512747 14.9096931,14.2597026 18.0744112,13.2915122 C21.2391293,12.3233217 26.4792687,12.8493848 27.6723727,14.3031184 C28.8654768,15.7568519 26.5086003,18.2598984 26.5086003,18.2598984 L25.34161,18.6297404 L24.1417498,18.7226031 L24.5952602,16.5872199 Z" stroke-linecap="round" stroke-linejoin="round"/>
      <use fill="#FFFFFF" stroke="#C4C4C4" stroke-width=".8" mask="url(#ah)" transform="rotate(2 9.362 5.792)" xlink:href="#D"/>
      <path fill="#E06E90" stroke="#B2555E" stroke-width="1.2" d="M12.768612,1.8638836 C12.768612,1.8638836 24.9001313,-2.16774754 28.9496697,3.58528521 C31.4255548,7.26661324 31.6924217,23.3266425 23.9166984,21.5423182 C16.855433,20.0992738 13.6309292,21.7311954 11.3346468,21.2003081 C8.43255522,20.1808619 9.11766633,17.6863424 11.521095,16.8257438 C17.3483141,15.2718187 22.0891815,16.6752474 24.8026098,17.6163595 C26.7547576,18.3538069 29.1062673,6.9238211 26.5913825,5.60984896 C24.0113014,4.36442161 21.0532286,5.66770534 18.4072483,6.4354943 C15.7612681,7.20328327 4.78956501,7.89413563 1.19806391,7.07883405 C-0.334930769,4.62870969 2.39281777,1.77002922 4.2567719,1.10269922 C8.91144143,0.22199052 12.768612,1.8638836 12.768612,1.8638836 Z" stroke-linecap="round" stroke-linejoin="round"/>
    </g>
    <g transform="translate(297.704 10.895)">
      <polygon fill="#212121" points="15.13 5.081 22.379 3.337 26.378 4.5 27.825 7.508 27.274 11.853 24.406 13.402 17.602 12.151 14.453 10.19"/>
      <rect width=".588" height="6" x="14.351" y="6.072" fill="#E06E90"/>
      <rect width=".588" height="6" x="13.813" y="6.072" fill="#B2555E"/>
      <path fill="#E06E90" stroke="#B2555E" stroke-width="1.2" d="M11.9608202,2.50085861 C11.9608202,2.50085861 23.7260821,-2.05058316 27.7756205,3.70244958 C30.2515056,7.38377762 29.557785,17.8608884 21.7820617,16.0765641 C14.7207963,14.6335197 14.0416472,15.9948155 11.7453648,15.4639283 C8.84327326,14.4444821 8.85134894,11.2595129 11.2547776,10.3989142 C17.0819967,8.84498915 20.5849173,11.0184243 23.2983456,11.9595364 C25.2504934,12.6969838 27.8284078,7.19252189 25.3135231,5.87854975 C22.7334419,4.6331224 20.1237306,5.96934339 17.4777504,6.73713236 C14.8317701,7.50492132 5.84739315,8.19331524 2.25589205,7.37801366 C-0.718134264,6.26027333 -0.00156543669,2.25808477 3.44367155,1.53843016 C8.09834107,0.657721457 11.9608202,2.50085861 11.9608202,2.50085861 Z" stroke-linecap="round" stroke-linejoin="round"/>
    </g>
    <g fill="#E06E90" stroke="#B2555E" stroke-width="1.2" transform="translate(339.136 13.61)" stroke-linecap="round" stroke-linejoin="round">
      <path d="M8.75636675,7.61555378 C8.75636675,7.61555378 11.2928569,13.006984 17.0479947,12.6132417 C22.8031325,12.2194994 30.8166311,7.47525481 27.7872431,3.98053502 C24.7578551,0.485815233 8.75636675,7.61555378 8.75636675,7.61555378 Z"/>
      <path d="M28.0644012,4.33962832 C24.9551396,5.9671451 21.3470667,8.9456853 1.54883749,7.39175142 C-0.599529778,5.47850089 3.32268115,0.914680445 7.64483687,1.00147062 C11.0863551,0.993264467 11.4041406,1.38591106 13.3260757,3.14639091 C20.1088005,-1.93063158 26.3991029,1.62276445 28.0644012,4.33962832 Z"/>
    </g>
  </g>
</svg>
