<svg xmlns="http://www.w3.org/2000/svg" width="172" height="17" viewBox="0 0 172 17">
  <path fill="#34373D" fill-rule="evenodd" d="M6.25290167,3.84338964 L6.25290167,5.12779247 L10.1061102,5.12779247 L10.1061102,3.84338964 C10.1061102,3.4641831 10.099994,3.25623425 10.0877615,3.21953684 C10.0510641,2.96265499 9.93485742,2.83421599 9.73913792,2.83421599 C9.65351064,2.83421599 9.58011692,2.84033214 9.51895458,2.85256461 L9.35381707,2.85256461 C8.81558843,2.85256461 8.54647815,2.4794799 8.54647815,1.73329928 C8.54647815,1.32962781 8.65962679,1.00547224 8.88592747,0.760822857 C9.11222815,0.516173476 9.40886107,0.393850621 9.77583514,0.393850621 C10.0204845,0.393850621 10.3874531,0.424431335 10.8767519,0.48559368 C11.3660506,0.546756025 11.7330192,0.577336739 11.9776686,0.577336739 C12.2957128,0.577336739 12.693262,0.552872168 13.1703283,0.503942292 C14.0021362,0.418315008 14.4119178,0.375502009 14.3996853,0.375502009 C14.7911243,0.375502009 15.1061057,0.500882936 15.3446388,0.751648551 C15.583172,1.00241417 15.7024368,1.32962781 15.7024368,1.73329928 C15.7024368,2.07580842 15.6076365,2.36326713 15.4180333,2.59568404 C15.22843,2.82810095 14.9929585,2.94430766 14.7116117,2.94430766 C14.6015195,2.94430766 14.451674,2.92290116 14.2620707,2.88008752 C14.0724675,2.83727388 13.9287381,2.81586738 13.8308784,2.81586738 C13.586229,2.81586738 13.4272093,2.96877095 13.3538144,3.27458268 C13.3293495,3.39690737 13.3171172,3.65378536 13.3171172,4.04522437 L13.3171172,9.12778985 C13.3171172,9.95959774 13.4822531,10.3754955 13.8125297,10.3754955 C13.9103895,10.3754955 14.0571769,10.354089 14.2528964,10.3112753 C14.4486159,10.2684617 14.5954034,10.2470552 14.6932631,10.2470552 C14.9746099,10.2470552 15.2131395,10.3632619 15.408859,10.5956788 C15.6045785,10.8280957 15.7024368,11.1155544 15.7024368,11.4580636 C15.7024368,11.861735 15.583172,12.1889487 15.3446388,12.4397143 C15.1061057,12.6904799 14.7911243,12.8158608 14.3996853,12.8158608 L14.3262909,12.8158608 C14.3018259,12.8036284 14.2773614,12.7975122 14.2528964,12.7975122 C14.008247,12.7975122 13.6412785,12.7669315 13.1519797,12.7057692 C12.662681,12.6446068 12.2895962,12.6140261 12.0327144,12.6140261 C11.5556481,12.6140261 11.1519827,12.6384907 10.821706,12.6874205 C10.3201748,12.7608154 9.9654385,12.7975122 9.75748653,12.7975122 C9.40274493,12.7975122 9.11222815,12.6721313 8.88592747,12.4213657 C8.65962679,12.1706001 8.54647815,11.8433864 8.54647815,11.4397149 C8.54647815,10.6935343 8.81558843,10.3204496 9.35381707,10.3204496 C9.42721188,10.3204496 9.48225717,10.3265658 9.51895458,10.3387982 L9.64739486,10.3387982 C9.69632474,10.3510307 9.72690545,10.3571468 9.73913792,10.3571468 C9.93485742,10.3571468 10.0510641,10.2225917 10.0877615,9.95347738 C10.099994,9.81892022 10.1061102,9.61097137 10.1061102,9.32962458 L10.1061102,7.51311201 L6.25290167,7.51311201 L6.25290167,9.32962458 L6.25290167,9.97182599 C6.28959908,10.2287078 6.41192193,10.3571468 6.61987391,10.3571468 C6.63210638,10.3571468 6.66268709,10.3510307 6.71161697,10.3387982 L6.82170864,10.3387982 C6.85840605,10.3265658 6.91345133,10.3204496 6.98684614,10.3204496 C7.52507478,10.3204496 7.79418507,10.6935343 7.79418507,11.4397149 C7.79418507,11.8433864 7.68103642,12.1706001 7.45473575,12.4213657 C7.22843507,12.6721313 6.93791829,12.7975122 6.58317668,12.7975122 C6.36299224,12.7975122 6.02966246,12.7669315 5.58317734,12.7057692 C5.13669222,12.6446068 4.7972463,12.6140261 4.56482938,12.6140261 C4.03883321,12.6140261 3.58012251,12.6384907 3.1886835,12.6874205 C2.60152498,12.7608154 2.19174342,12.7975122 1.9593265,12.7975122 C1.5678875,12.7975122 1.25290614,12.6751894 1.014373,12.43054 C0.775839849,12.1858906 0.656575065,11.861735 0.656575065,11.4580636 C0.656575065,11.1155544 0.75443335,10.8280957 0.950152854,10.5956788 C1.14587236,10.3632619 1.38440193,10.2470552 1.66574872,10.2470552 C1.76360847,10.2470552 1.90733782,10.2684617 2.09694109,10.3112753 C2.28654436,10.354089 2.43027372,10.3754955 2.52813347,10.3754955 C2.85841014,10.3754955 3.02354599,9.95959774 3.02354599,9.12778985 L3.02354599,4.04522437 C3.02354599,3.22564895 2.85841014,2.81586738 2.52813347,2.81586738 C2.43027372,2.81586738 2.28654436,2.83727388 2.09694109,2.88008752 C1.90733782,2.92290116 1.75749233,2.94430766 1.6474001,2.94430766 C1.36605332,2.94430766 1.13058182,2.82810095 0.940978548,2.59568404 C0.751375278,2.36326713 0.656575065,2.07580842 0.656575065,1.73329928 C0.656575065,1.32962781 0.778897921,1.00547224 1.0235473,0.760822857 C1.26819668,0.516173476 1.58623611,0.393850621 1.97767512,0.393850621 C2.09999981,0.393850621 2.49143294,0.430547478 3.15198627,0.503942292 C3.59235516,0.552872168 4.03271744,0.577336739 4.47308632,0.577336739 C4.85229287,0.577336739 5.20702915,0.552872168 5.53730581,0.503942292 C6.02660457,0.430547478 6.37522471,0.393850621 6.58317668,0.393850621 C6.95015076,0.393850621 7.24372561,0.519231548 7.46391005,0.769997163 C7.6840945,1.02076278 7.79418507,1.34797642 7.79418507,1.7516479 C7.79418507,2.48559604 7.52507478,2.85256461 6.98684614,2.85256461 L6.82170864,2.85256461 C6.77277876,2.84033214 6.70550119,2.83421599 6.61987391,2.83421599 C6.41192193,2.83421599 6.28959908,2.96265499 6.25290167,3.21953684 L6.25290167,3.84338964 L6.25290167,3.84338964 Z M21.2804148,13.0176956 C19.7635886,13.0176956 18.5923473,12.5895656 17.7666556,11.7332927 C16.9409639,10.8770199 16.5281243,9.67213977 16.5281243,8.1186162 C16.5281243,6.5773251 16.9379059,5.37550304 17.7574813,4.51311398 C18.5770567,3.65072491 19.7268916,3.21953684 21.2070203,3.21953684 C22.6626841,3.21953684 23.8094609,3.64766684 24.647385,4.50393967 C25.4853092,5.3602125 25.9042649,6.53451192 25.9042649,8.02687314 C25.9042649,9.59262918 25.4975414,10.8158577 24.6840823,11.6965955 C23.8706231,12.5773333 22.7360786,13.0176956 21.2804148,13.0176956 L21.2804148,13.0176956 Z M21.2070203,5.4764161 C20.6687917,5.4764161 20.2437197,5.71188759 19.9317918,6.18283765 C19.6198638,6.65378771 19.4639022,7.29904077 19.4639022,8.1186162 C19.4639022,8.95042409 19.6198638,9.59873523 19.9317918,10.0635691 C20.2437197,10.5284029 20.681024,10.7608163 21.2437175,10.7608163 C22.3813372,10.7608163 22.9501384,9.88009174 22.9501384,8.1186162 C22.9501384,6.35714066 22.3691049,5.4764161 21.2070203,5.4764161 L21.2070203,5.4764161 Z M30.6932526,4.02687576 L30.6932526,4.87091191 C31.6106878,3.76998969 32.6320836,3.21953684 33.7574708,3.21953684 C34.6993709,3.21953684 35.476121,3.67824755 36.0877445,4.59568273 C36.699368,4.06968656 37.2222982,3.70883414 37.6565508,3.51311463 C38.0908035,3.31739513 38.5953852,3.21953684 39.1703113,3.21953684 C40.3323958,3.21953684 41.2008881,3.60485384 41.7758142,4.37549939 C42.1672532,4.90149556 42.3629697,5.74552326 42.3629697,6.90760782 L42.3629697,9.71494543 C42.3629697,10.3388013 42.4791765,10.6507246 42.7115934,10.6507246 C42.7849882,10.6507246 42.8828465,10.6323762 43.0051712,10.5956788 C43.0663335,10.5712139 43.1580756,10.5589816 43.2804003,10.5589816 C43.818629,10.5589816 44.0877393,10.877021 44.0877393,11.5131094 C44.0877393,11.8923159 43.989881,12.1981231 43.7941615,12.43054 C43.598442,12.6629569 43.341564,12.7791636 43.0235198,12.7791636 C42.9868224,12.7791636 42.8094542,12.7608152 42.49141,12.7241178 L42.0877406,12.6690719 C41.8920211,12.644607 41.6351431,12.6323747 41.3170989,12.6323747 C40.9256599,12.6323747 40.546459,12.6568393 40.1794849,12.7057692 C39.8125109,12.754699 39.5556329,12.7791636 39.4088432,12.7791636 C39.115264,12.7791636 38.8736763,12.666015 38.6840731,12.4397143 C38.4944698,12.2134136 38.3996696,11.929013 38.3996696,11.5865038 C38.3996696,11.0238103 38.6259669,10.6996547 39.0785682,10.6140274 C39.3109851,10.57733 39.4485984,10.5100524 39.491412,10.4121927 C39.5342256,10.3143329 39.5556321,10.0452226 39.5556321,9.60485376 L39.5556321,7.71494674 C39.5556321,6.93206872 39.4730642,6.39690623 39.3079259,6.1094432 C39.1427875,5.82198018 38.8278062,5.67825083 38.3629724,5.67825083 C37.3232125,5.67825083 36.8033404,6.4183041 36.8033404,7.89843286 L36.8033404,9.60485376 C36.8033404,10.0207577 36.8216888,10.2837518 36.8583862,10.3938441 C36.8950836,10.5039363 36.9929419,10.57733 37.151964,10.6140274 C37.5311705,10.6996547 37.720771,11.0054618 37.720771,11.531458 C37.720771,12.3632659 37.378267,12.7791636 36.6932487,12.7791636 C36.5586915,12.7791636 36.3690911,12.7608152 36.1244417,12.7241178 C35.7207702,12.6629554 35.45166,12.6323747 35.3171028,12.6323747 C35.1703132,12.6323747 34.9531901,12.6568393 34.6657271,12.7057692 C34.3782641,12.754699 34.161141,12.7791636 34.0143514,12.7791636 C33.4149604,12.7791636 33.1152694,12.3938466 33.1152694,11.6232011 C33.1152694,11.07274 33.3048698,10.7485844 33.6840764,10.6507246 C33.8920283,10.6017948 34.0021189,10.4550073 34.0143514,10.2103579 C34.0265838,9.88008128 34.0327,9.67824857 34.0327,9.60485376 L34.0327,7.53146062 C34.0327,6.83420989 33.950132,6.35103461 33.7849937,6.08192029 C33.6198554,5.81280597 33.3232225,5.67825083 32.895086,5.67825083 C31.8186288,5.67825083 31.2804082,6.4183041 31.2804082,7.89843286 L31.2804082,10.1186149 C31.2804082,10.3143344 31.3048728,10.4397153 31.3538026,10.4947614 C31.4027325,10.5498075 31.5250554,10.5956786 31.7207749,10.632376 C32.1978412,10.7180033 32.4363707,11.0360427 32.4363707,11.5865038 C32.4363707,12.3816143 32.0999829,12.7791636 31.4271971,12.7791636 C31.2192451,12.7791636 30.9103799,12.754699 30.5005922,12.7057692 C30.0908045,12.6568393 29.7819393,12.6323747 29.5739873,12.6323747 C29.2926405,12.6323747 29.0051818,12.6507231 28.7116025,12.6874205 C28.2223038,12.7485829 27.9103805,12.7791636 27.7758233,12.7791636 C27.4333142,12.7791636 27.1611459,12.666015 26.9593101,12.4397143 C26.7574744,12.2134136 26.656558,11.9228968 26.656558,11.5681552 C26.656558,10.8709045 26.9501329,10.5222843 27.5372914,10.5222843 C27.6351511,10.5222843 27.7452417,10.5436908 27.8675664,10.5865045 C27.9898911,10.6293181 28.0816332,10.6507246 28.1427956,10.6507246 C28.3507476,10.6507246 28.454722,10.3082206 28.454722,9.62320237 L28.454722,6.65072725 C28.454722,5.95347652 28.3507476,5.60485638 28.1427956,5.60485638 C28.0938657,5.60485638 27.9990655,5.62626288 27.8583921,5.66907652 C27.7177187,5.71189016 27.6106862,5.73329666 27.5372914,5.73329666 C26.9501329,5.73329666 26.656558,5.39079267 26.656558,4.7057744 C26.656558,4.3510328 26.7574744,4.05745794 26.9593101,3.82504103 C27.1611459,3.59262412 27.4271981,3.47641741 27.7574747,3.47641741 C27.8308695,3.47641741 28.0327023,3.50699812 28.3629789,3.56816047 C28.5586984,3.60485787 28.7421827,3.6232063 28.9134373,3.6232063 C29.0602269,3.6232063 29.27735,3.59874173 29.564813,3.54981185 C29.852276,3.50088198 30.0693991,3.47641741 30.2161887,3.47641741 C30.5342329,3.47641741 30.6932526,3.65990169 30.6932526,4.02687576 L30.6932526,4.02687576 Z M53.5372743,7.32962589 C53.5372743,7.84338959 53.4730548,8.18589359 53.3446139,8.35714815 C53.216173,8.52840272 52.9623531,8.61402872 52.5831465,8.61402872 L48.1060852,8.61402872 C47.8859008,8.61402872 47.7482876,8.63543522 47.6932415,8.67824886 C47.6381954,8.7210625 47.6106727,8.828095 47.6106727,8.99934957 C47.6106727,9.51311327 47.7758086,9.94124326 48.1060852,10.2837524 C48.4363619,10.6262615 48.8522596,10.7975135 49.3537908,10.7975135 C49.8675545,10.7975135 50.3935428,10.516171 50.9317715,9.95347738 C51.2987455,9.56203837 51.702411,9.3663218 52.1427798,9.3663218 C52.5097539,9.3663218 52.8063868,9.47029623 53.0326875,9.6782482 C53.2589882,9.88620018 53.3721368,10.1491943 53.3721368,10.4672385 C53.3721368,11.1767217 52.9837618,11.7791618 52.207,12.2745768 C51.4302382,12.7699918 50.4852941,13.0176956 49.3721395,13.0176956 C47.9164756,13.0176956 46.7544085,12.5773333 45.8859032,11.6965955 C45.0173979,10.8158577 44.5831518,9.64155832 44.5831518,8.17366203 C44.5831518,6.69353328 45.0143398,5.49782737 45.8767289,4.58650842 C46.739118,3.67518948 47.8675463,3.21953684 49.2620478,3.21953684 C50.5586895,3.21953684 51.5953757,3.59262155 52.3721375,4.33880216 C53.1488993,5.08498277 53.5372743,6.08191405 53.5372743,7.32962589 L53.5372743,7.32962589 Z M47.7024158,6.4121953 C47.7024158,6.48559011 47.7207642,6.54675154 47.7574616,6.59568142 C47.794159,6.64461129 47.922598,6.66907587 48.1427825,6.66907587 L50.197827,6.66907587 C50.381314,6.66907587 50.4944627,6.64766937 50.5372763,6.60485572 C50.58009,6.56204208 50.6014965,6.4855903 50.6014965,6.37549808 C50.6014965,6.05745388 50.4608252,5.77916938 50.1794784,5.54063624 C49.8981316,5.30210309 49.5678599,5.18283831 49.1886533,5.18283831 C48.6993546,5.18283831 48.3018053,5.37243873 47.9959936,5.75164527 C47.8002741,5.99629465 47.7024158,6.21647579 47.7024158,6.4121953 L47.7024158,6.4121953 Z M58.3996565,4.04522437 L58.3996565,5.60485638 C58.570911,4.98100046 58.7727438,4.52228975 59.0051607,4.22871049 C59.5433893,3.55592469 60.2956749,3.21953684 61.2620399,3.21953684 C61.9348257,3.21953684 62.5005689,3.43665991 62.9592865,3.87091256 C63.4180041,4.30516521 63.6473595,4.84032771 63.6473595,5.4764161 C63.6473595,5.97794733 63.500572,6.39078696 63.2069928,6.71494739 C62.9134135,7.03910782 62.5403288,7.20118561 62.0877275,7.20118561 C61.7452183,7.20118561 61.4547015,7.09109504 61.2161684,6.8709106 C60.9776352,6.65072615 60.8583705,6.38161587 60.8583705,6.06357167 C60.8583705,5.89231711 60.9378803,5.65378754 61.0969024,5.34797581 L60.9868107,5.34797581 C60.1672353,5.34797581 59.6167825,5.78222195 59.3354357,6.65072725 C59.1152512,7.34797799 59.0051607,8.14919269 59.0051607,9.0543954 L59.0051607,9.75164265 C59.0051607,10.1920115 59.0418575,10.4733541 59.1152523,10.5956788 C59.1641822,10.6690736 59.2498082,10.7057705 59.3721329,10.7057705 C59.4822251,10.7057705 59.6351287,10.6813059 59.8308482,10.632376 C60.0265677,10.5834461 60.1733551,10.5589816 60.2712149,10.5589816 C60.5403292,10.5589816 60.7696846,10.6537818 60.9592878,10.8433851 C61.1488911,11.0329883 61.2436913,11.2623437 61.2436913,11.531458 C61.2436913,11.8861996 61.1244265,12.1828325 60.8858934,12.4213657 C60.6473602,12.6598988 60.3568435,12.7791636 60.0143343,12.7791636 C59.8308473,12.7791636 59.4883433,12.7485829 58.9868121,12.6874205 C58.6810003,12.6507231 58.2956833,12.6323747 57.8308495,12.6323747 C57.3660157,12.6323747 56.9562341,12.6507231 56.6014925,12.6874205 C56.014334,12.7485829 55.6534816,12.7791636 55.5189244,12.7791636 C54.7605113,12.7791636 54.3813105,12.369382 54.3813105,11.5498066 C54.3813105,10.8647883 54.6748853,10.5222843 55.2620439,10.5222843 C55.3599036,10.5222843 55.4699942,10.5436908 55.5923189,10.5865045 C55.7146436,10.6293181 55.8063857,10.6507246 55.867548,10.6507246 C56.0755,10.6507246 56.1794744,10.3082206 56.1794744,9.62320237 L56.1794744,6.65072725 C56.1794744,5.95347652 56.0755,5.60485638 55.867548,5.60485638 C55.8186182,5.60485638 55.723818,5.62626288 55.5831446,5.66907652 C55.4424712,5.71189016 55.3354387,5.73329666 55.2620439,5.73329666 C54.6748853,5.73329666 54.3813105,5.39690881 54.3813105,4.72412301 C54.3813105,4.35714894 54.4791688,4.05745794 54.6748883,3.82504103 C54.8706078,3.59262412 55.1213696,3.47641741 55.4271814,3.47641741 C55.5495061,3.47641741 55.7207581,3.50088198 55.9409425,3.54981185 C56.1611269,3.59874173 56.3690758,3.6232063 56.5647953,3.6232063 C56.7115849,3.6232063 56.9256499,3.59874173 57.2069967,3.54981185 C57.4883435,3.50088198 57.6962924,3.47641741 57.8308495,3.47641741 C58.2100561,3.47641741 58.3996565,3.66601783 58.3996565,4.04522437 L58.3996565,4.04522437 Z M64.4913956,1.99017985 C64.4913956,1.46418368 64.6595895,1.0238214 64.9959824,0.669079798 C65.3323753,0.314338196 65.745215,0.136970055 66.2345137,0.136970055 C66.8339047,0.136970055 67.3354284,0.387731909 67.7390999,0.88926314 C68.1427714,1.39079437 68.3446041,2.00240865 68.3446041,2.72412432 C68.3446041,4.20425308 67.6901768,5.7516372 66.3813026,7.36632311 C66.0632584,7.75776212 65.7696836,7.95347869 65.5005693,7.95347869 C65.0479679,7.95347869 64.8216706,7.70271684 64.8216706,7.20118561 C64.8216706,6.89537388 64.9501096,6.55286989 65.2069915,6.17366335 C65.9164747,5.13390348 66.271211,4.45501163 66.271211,4.13696743 C66.271211,3.96571287 66.1305397,3.83727387 65.8491929,3.75164658 C64.9439902,3.49476473 64.4913956,2.90761503 64.4913956,1.99017985 L64.4913956,1.99017985 Z M73.6290043,3.21953684 C74.5709044,3.21953684 75.366003,3.48253098 76.0143238,4.00852715 C76.0632537,3.49476345 76.3935254,3.23788545 77.0051489,3.23788545 C77.6290048,3.23788545 77.9409281,3.45806659 77.9409281,3.89843548 C77.9409281,4.04522511 77.9164635,4.21036096 77.8675336,4.393848 C77.8308362,4.61403244 77.8124878,4.8219813 77.8124878,5.0177008 C77.8124878,5.05439821 77.8186039,5.15225649 77.8308364,5.31127859 L77.8308364,5.73329666 L77.8308364,5.80669111 C77.8308364,6.45501197 77.5066808,6.77916754 76.85836,6.77916754 C76.3935262,6.77916754 75.9898607,6.54675411 75.6473516,6.08192029 C75.2314476,5.51922671 74.7238078,5.23788414 74.1244168,5.23788414 C73.4149336,5.23788414 73.0601973,5.48252985 73.0601973,5.97182862 C73.0601973,6.22871047 73.176404,6.40913668 73.408821,6.51311266 C73.6412379,6.61708865 74.2528521,6.75470186 75.2436821,6.92595643 C76.0510251,7.07274606 76.647349,7.23788191 77.0326718,7.42136895 C77.4179946,7.60485599 77.7329759,7.86785013 77.9776253,8.21035926 C78.283437,8.65072814 78.4363406,9.16448414 78.4363406,9.75164265 C78.4363406,10.6813103 78.0785462,11.4580604 77.3629468,12.0819164 C76.6473474,12.7057723 75.7513324,13.0176956 74.6748752,13.0176956 C73.5984179,13.0176956 72.619835,12.6751916 71.7390973,11.9901733 C71.7390973,12.5895643 71.4332901,12.8892553 70.8216667,12.8892553 C70.1611134,12.8892553 69.8308416,12.620145 69.8308416,12.0819164 C69.8308416,11.9595917 69.8430739,11.7699912 69.8675389,11.5131094 C69.8920038,11.2562275 69.9042361,11.0666271 69.9042361,10.9443024 C69.9042361,10.8342102 69.8950619,10.6690743 69.8767132,10.4488899 C69.8583645,10.2287055 69.8491903,10.0635696 69.8491903,9.95347738 C69.8491903,9.40301627 70.1916943,9.12778985 70.8767125,9.12778985 C71.2069892,9.12778985 71.457751,9.17671899 71.6290056,9.27457874 C71.8002602,9.3724385 71.9837445,9.56203892 72.179464,9.84338571 C72.4852757,10.2959871 72.7666183,10.59262 73.0235001,10.7332934 C73.280382,10.8739668 73.6595828,10.9443024 74.161114,10.9443024 C75.0418518,10.9443024 75.4822141,10.669076 75.4822141,10.1186149 C75.4822141,9.73940835 75.1274778,9.47641421 74.4179946,9.32962458 L73.3537751,9.10944124 C72.4852698,8.9259542 71.8705975,8.74246992 71.5097396,8.55898288 C71.1488818,8.37549585 70.8644812,8.08497907 70.6565292,7.68742382 C70.4485772,7.28986858 70.3446028,6.83421594 70.3446028,6.32045224 C70.3446028,5.40301706 70.6473518,4.65684764 71.2528591,4.0819216 C71.8583663,3.50699555 72.6504068,3.21953684 73.6290043,3.21953684 L73.6290043,3.21953684 Z M94.913394,1.65990484 L96.142751,9.54980792 L97.2987135,3.49476602 C97.335411,3.36020886 97.3537594,3.24400215 97.3537594,3.14614239 C97.3537594,2.92595795 97.249785,2.81586738 97.041833,2.81586738 C97.0051356,2.81586738 96.9256257,2.82809967 96.803301,2.85256461 L96.6932094,2.85256461 C96.6442795,2.86479707 96.6075826,2.87091322 96.5831177,2.87091322 C96.1182839,2.87091322 95.8858704,2.50394465 95.8858704,1.76999651 C95.8858704,0.852561329 96.295652,0.393850621 97.1152274,0.393850621 C97.3231794,0.393850621 97.6167543,0.418315192 97.9959608,0.467245068 C98.5708868,0.540639882 98.9562038,0.577336739 99.1519233,0.577336739 C99.1763883,0.577336739 99.6656797,0.522291454 100.619812,0.412199233 C100.778834,0.399966764 100.91339,0.393850621 101.023482,0.393850621 C101.390456,0.393850621 101.693205,0.519231548 101.931738,0.769997163 C102.170271,1.02076278 102.289536,1.33574413 102.289536,1.71495067 C102.289536,2.04522734 102.200852,2.33268605 102.023481,2.57733543 C101.84611,2.82198481 101.635103,2.94430766 101.390454,2.94430766 C101.255897,2.94430766 101.130516,2.92290116 101.014307,2.88008752 C100.898099,2.83727388 100.797183,2.81586738 100.711555,2.81586738 C100.503603,2.81586738 100.3507,2.96877095 100.25284,3.27458268 C100.25284,3.28681515 100.197795,3.52534471 100.087703,3.99017854 L98.4179789,11.4030177 C98.2956542,11.9045489 98.203912,12.2103561 98.1427497,12.3204483 C98.0081925,12.5773302 97.7574307,12.7057692 97.3904566,12.7057692 C97.2558994,12.7057692 97.0601829,12.6935369 96.803301,12.6690719 C96.6809763,12.6568395 96.4669113,12.6507233 96.1610996,12.6507233 C95.9042178,12.6507233 95.6779205,12.6568395 95.482201,12.6690719 L94.8950454,12.7057692 L94.8033023,12.7057692 C94.4852581,12.7057692 94.265077,12.5956786 94.1427523,12.3754941 C94.0204276,12.1553097 93.8981048,11.653786 93.7757801,10.870908 L92.784955,4.46724245 L91.7757814,10.870908 C91.6534567,11.653786 91.5311338,12.1553097 91.4088092,12.3754941 C91.2864845,12.5956786 91.0663033,12.7057692 90.7482591,12.7057692 C90.6381669,12.7057692 90.4118696,12.6935369 90.0693605,12.6690719 C89.8981059,12.6568395 89.6779248,12.6507233 89.4088105,12.6507233 C89.2742533,12.6507233 89.0693625,12.6598975 88.794132,12.6782462 C88.5189014,12.6965949 88.3140106,12.7057692 88.1794535,12.7057692 C87.8124794,12.7057692 87.5617175,12.5773302 87.4271604,12.3204483 C87.365998,12.2225886 87.2742559,11.9167814 87.1519312,11.4030177 L86.9317479,10.4672385 L85.4638589,3.99017854 C85.414929,3.75776163 85.3659999,3.51923206 85.31707,3.27458268 C85.2069778,2.96877095 85.0540742,2.81586738 84.8583547,2.81586738 C84.760495,2.81586738 84.6565206,2.83421581 84.5464283,2.87091322 C84.3996387,2.91984309 84.2773158,2.94430766 84.1794561,2.94430766 C83.9348067,2.94430766 83.7207417,2.82198481 83.5372547,2.57733543 C83.3537676,2.33268605 83.2620255,2.03911119 83.2620255,1.69660206 C83.2620255,1.31739552 83.3843484,1.00547224 83.6289977,0.760822857 C83.8736471,0.516173476 84.1794543,0.393850621 84.5464283,0.393850621 C84.7543803,0.393850621 85.0632455,0.424431335 85.4730332,0.48559368 C85.8828209,0.546756025 86.1978023,0.577336739 86.4179867,0.577336739 C86.6137062,0.577336739 86.9990232,0.540639882 87.5739493,0.467245068 C87.9531558,0.418315192 88.2467307,0.393850621 88.4546826,0.393850621 C89.2742581,0.393850621 89.6840396,0.828096758 89.6840396,1.69660206 C89.6840396,2.47948008 89.4516262,2.87091322 88.9867924,2.87091322 C88.9623275,2.87091322 88.9256306,2.86479707 88.8767007,2.85256461 L88.7482604,2.85256461 C88.6259357,2.82809967 88.552542,2.81586738 88.5280771,2.81586738 C88.3201251,2.81586738 88.2161507,2.93207409 88.2161507,3.16449101 C88.2161507,3.26235076 88.228383,3.37244133 88.2528479,3.49476602 L89.4271591,9.54980792 L90.6381675,1.65990484 C90.7237947,1.13390867 90.8155369,0.791404672 90.9133966,0.632382575 C91.0112564,0.473360477 91.1825084,0.393850621 91.4271578,0.393850621 C91.5739474,0.393850621 91.8002447,0.409140978 92.1060564,0.43972215 C92.4118681,0.470303323 92.6381654,0.48559368 92.784955,0.48559368 C92.9317447,0.48559368 93.1549839,0.470303323 93.4546794,0.43972215 C93.7543749,0.409140978 93.9776141,0.393850621 94.1244037,0.393850621 C94.4302154,0.393850621 94.6381643,0.534521905 94.7482565,0.815868693 C94.7849539,0.913728445 94.8399992,1.19507101 94.913394,1.65990484 L94.913394,1.65990484 Z M110.638154,7.32962589 C110.638154,7.84338959 110.573935,8.18589359 110.445494,8.35714815 C110.317053,8.52840272 110.063233,8.61402872 109.684027,8.61402872 L105.206965,8.61402872 C104.986781,8.61402872 104.849168,8.63543522 104.794121,8.67824886 C104.739075,8.7210625 104.711553,8.828095 104.711553,8.99934957 C104.711553,9.51311327 104.876689,9.94124326 105.206965,10.2837524 C105.537242,10.6262615 105.95314,10.7975135 106.454671,10.7975135 C106.968435,10.7975135 107.494423,10.516171 108.032651,9.95347738 C108.399626,9.56203837 108.803291,9.3663218 109.24366,9.3663218 C109.610634,9.3663218 109.907267,9.47029623 110.133568,9.6782482 C110.359868,9.88620018 110.473017,10.1491943 110.473017,10.4672385 C110.473017,11.1767217 110.084642,11.7791618 109.30788,12.2745768 C108.531118,12.7699918 107.586174,13.0176956 106.473019,13.0176956 C105.017356,13.0176956 103.855289,12.5773333 102.986783,11.6965955 C102.118278,10.8158577 101.684032,9.64155832 101.684032,8.17366203 C101.684032,6.69353328 102.11522,5.49782737 102.977609,4.58650842 C103.839998,3.67518948 104.968426,3.21953684 106.362928,3.21953684 C107.65957,3.21953684 108.696256,3.59262155 109.473017,4.33880216 C110.249779,5.08498277 110.638154,6.08191405 110.638154,7.32962589 L110.638154,7.32962589 Z M104.803296,6.4121953 C104.803296,6.48559011 104.821644,6.54675154 104.858342,6.59568142 C104.895039,6.64461129 105.023478,6.66907587 105.243662,6.66907587 L107.298707,6.66907587 C107.482194,6.66907587 107.595343,6.64766937 107.638156,6.60485572 C107.68097,6.56204208 107.702376,6.4855903 107.702376,6.37549808 C107.702376,6.05745388 107.561705,5.77916938 107.280358,5.54063624 C106.999012,5.30210309 106.66874,5.18283831 106.289533,5.18283831 C105.800235,5.18283831 105.402685,5.37243873 105.096874,5.75164527 C104.901154,5.99629465 104.803296,6.21647579 104.803296,6.4121953 L104.803296,6.4121953 Z M115.463839,0.999354811 L115.463839,4.46724245 C116.25895,3.63543455 117.14579,3.21953684 118.124388,3.21953684 C119.200845,3.21953684 120.072396,3.65684105 120.739065,4.53146259 C121.405735,5.40608412 121.739064,6.5528609 121.739064,7.9718273 C121.739064,9.50088594 121.36598,10.7241145 120.619799,11.6415497 C119.873619,12.5589848 118.876687,13.0176956 117.628975,13.0176956 C116.381264,13.0176956 115.396565,12.5284041 114.674849,11.5498066 C114.699314,11.7455261 114.711546,11.8984297 114.711546,12.0085219 C114.711546,12.5712155 114.375158,12.8525581 113.702373,12.8525581 C113.005122,12.8525581 112.656502,12.4978218 112.656502,11.7883386 L112.656502,3.42137157 C112.656502,2.79751565 112.552527,2.48559237 112.344575,2.48559237 C112.258948,2.48559237 112.148857,2.51005694 112.0143,2.55898682 C111.940905,2.58345175 111.843047,2.59568404 111.720722,2.59568404 C111.133564,2.59568404 110.839989,2.25929619 110.839989,1.58651039 C110.839989,1.21953632 110.940905,0.922903393 111.142741,0.696602716 C111.344577,0.470302039 111.616745,0.357153397 111.959254,0.357153397 C112.118276,0.357153397 112.35069,0.375501826 112.656502,0.412199233 C112.962313,0.44889664 113.194727,0.467245068 113.353749,0.467245068 C113.720723,0.467245068 114.044879,0.44889664 114.326225,0.412199233 C114.607572,0.375501826 114.815521,0.357153397 114.950078,0.357153397 C115.292587,0.357153397 115.463839,0.571218394 115.463839,0.999354811 L115.463839,0.999354811 Z M117.188609,10.6874219 C118.252834,10.6874219 118.784938,9.83116187 118.784938,8.1186162 C118.784938,6.40607053 118.265066,5.54981054 117.225306,5.54981054 C116.723775,5.54981054 116.310935,5.79139818 115.986775,6.27458071 C115.662614,6.75776324 115.500536,7.36631944 115.500536,8.10026759 C115.500536,9.82504572 116.063222,10.6874219 117.188609,10.6874219 L117.188609,10.6874219 Z M133.243644,8.61402872 C132.913367,8.60179625 132.748232,8.78528053 132.748232,9.16448707 L132.748232,9.75164265 C132.748232,10.1675466 132.931716,10.3754955 133.29869,10.3754955 C133.44548,10.3754955 133.628964,10.357147 133.849148,10.3204496 C134.118263,10.2715197 134.34456,10.2470552 134.528047,10.2470552 C134.833859,10.2470552 135.078504,10.3571457 135.261991,10.5773302 C135.445478,10.7975146 135.537221,11.0910895 135.537221,11.4580636 C135.537221,11.861735 135.414898,12.1858906 135.170248,12.43054 C134.925599,12.6751894 134.60756,12.7975122 134.216121,12.7975122 C133.873611,12.7975122 133.365972,12.7669315 132.693186,12.7057692 C132.0204,12.6446068 131.51276,12.6140261 131.170251,12.6140261 C130.644255,12.6140261 130.203893,12.6323745 129.849151,12.6690719 L128.950069,12.760815 C128.70542,12.7852799 128.540284,12.7975122 128.454656,12.7975122 C128.063217,12.7975122 127.748236,12.6751894 127.509703,12.43054 C127.27117,12.1858906 127.151905,11.861735 127.151905,11.4580636 C127.151905,11.1155544 127.246705,10.8280957 127.436308,10.5956788 C127.625912,10.3632619 127.861383,10.2470552 128.14273,10.2470552 C128.252822,10.2470552 128.405726,10.2684617 128.601445,10.3112753 C128.797165,10.354089 128.937836,10.3754955 129.023463,10.3754955 C129.35374,10.3754955 129.518876,9.95959774 129.518876,9.12778985 L129.518876,4.04522437 C129.518876,3.65378536 129.506644,3.40302351 129.482179,3.29293129 C129.421016,2.97488709 129.268113,2.81586738 129.023463,2.81586738 C128.925604,2.81586738 128.781874,2.83727388 128.592271,2.88008752 C128.402668,2.92290116 128.252822,2.94430766 128.14273,2.94430766 C127.861383,2.94430766 127.625912,2.82810095 127.436308,2.59568404 C127.246705,2.36326713 127.151905,2.07580842 127.151905,1.73329928 C127.151905,1.32962781 127.274228,1.00241417 127.518877,0.751648551 C127.763527,0.500882936 128.081566,0.375502009 128.473005,0.375502009 L128.528051,0.375502009 C128.552516,0.387734478 128.57698,0.393850621 128.601445,0.393850621 C128.895025,0.393850621 129.341503,0.424431335 129.940894,0.48559368 C130.540285,0.546756025 130.99288,0.577336739 131.298691,0.577336739 C131.88585,0.577336739 132.528045,0.552872168 133.225296,0.503942292 C134.106033,0.442779947 134.607557,0.412199233 134.729882,0.412199233 C136.063221,0.412199233 137.14272,0.788342014 137.968412,1.54063886 C138.794103,2.29293571 139.206943,3.28069277 139.206943,4.50393967 C139.206943,5.77611645 138.781871,6.78528001 137.931714,7.53146062 C137.081558,8.27764123 135.922549,8.65072594 134.454652,8.65072594 C134.332328,8.65072594 134.099914,8.6446098 133.757405,8.63237733 L133.243644,8.61402872 Z M132.748232,5.51311332 C132.748232,5.85562245 132.778812,6.06662938 132.839975,6.14614043 C132.901137,6.22565148 133.066273,6.27152255 133.335387,6.28375502 L133.628965,6.30210363 C135.072396,6.38773091 135.794101,5.81892963 135.794101,4.59568273 C135.794101,3.4213657 135.14579,2.83421599 133.849148,2.83421599 C133.531104,2.83421599 133.310923,2.85256442 133.188598,2.88926183 C132.968414,2.95042417 132.833859,3.0972116 132.784929,3.32962851 C132.760464,3.4519532 132.748232,3.63543749 132.748232,3.88008687 L132.748232,5.51311332 Z M148.050974,13.0176956 C147.047911,13.0176956 146.375136,12.6140301 146.032627,11.8066872 C145.176354,12.6140301 144.161074,13.0176956 142.986757,13.0176956 C142.020392,13.0176956 141.249758,12.7638756 140.674832,12.2562282 C140.099906,11.7485807 139.812447,11.0727469 139.812447,10.2287066 C139.812447,8.94429731 140.369016,8.11250189 141.482171,7.73329535 C141.959237,7.57427325 142.50969,7.43971811 143.133546,7.32962589 C144.002051,7.18283626 144.592259,7.01464234 144.904187,6.82503907 C145.216115,6.6354358 145.372077,6.34491901 145.372077,5.95348 C145.372077,5.67213322 145.252812,5.43666172 145.014279,5.24705845 C144.775745,5.05745518 144.479113,4.96265497 144.124371,4.96265497 C143.720699,4.96265497 143.518867,5.09109396 143.518867,5.34797581 C143.518867,5.4336031 143.524983,5.5192291 143.537215,5.60485638 L143.537215,5.67825083 C143.537215,6.02075996 143.393486,6.30821867 143.106023,6.54063558 C142.81856,6.77305249 142.460766,6.88925921 142.032629,6.88925921 C141.54333,6.88925921 141.139665,6.74247178 140.821621,6.44889252 C140.503577,6.15531327 140.344557,5.7883447 140.344557,5.34797581 C140.344557,4.68742249 140.693177,4.16755035 141.390428,3.78834381 C142.087678,3.40913727 143.047913,3.21953684 144.27116,3.21953684 C145.592266,3.21953684 146.576965,3.42136955 147.225286,3.82504103 C147.922537,4.26540992 148.271157,5.08497305 148.271157,6.28375502 L148.271157,10.0819177 C148.271157,10.4733567 148.369015,10.6690732 148.564735,10.6690732 C148.662595,10.6690732 148.754337,10.6629571 148.839964,10.6507246 C148.876662,10.6384922 148.919475,10.632376 148.968404,10.632376 C149.249751,10.632376 149.488281,10.7302343 149.684,10.9259538 C149.87972,11.1216733 149.977578,11.3602029 149.977578,11.6415497 C149.977578,12.0452211 149.797152,12.3754929 149.436294,12.6323747 C149.075436,12.8892566 148.613667,13.0176956 148.050974,13.0176956 L148.050974,13.0176956 Z M145.390425,9.09109263 L145.390425,8.68742317 C145.304798,8.73635304 144.766577,8.88925661 143.775747,9.14613846 C143.102962,9.31739303 142.766574,9.58038717 142.766574,9.93512877 C142.766574,10.4978223 143.096845,10.7791649 143.757399,10.7791649 C144.846088,10.7791649 145.390425,10.2164798 145.390425,9.09109263 L145.390425,9.09109263 Z M155.298676,3.21953684 C155.298676,3.21953684 155.531089,3.23176913 155.995923,3.25623407 C156.008155,2.63237814 156.216104,2.14614479 156.619776,1.79751943 C157.023447,1.44889406 157.580016,1.27458399 158.289499,1.27458399 C158.864425,1.27458399 159.344543,1.42137142 159.729865,1.71495067 C160.115188,2.00852993 160.307847,2.38161464 160.307847,2.83421599 C160.307847,3.14002772 160.20693,3.39690572 160.005094,3.60485769 C159.803259,3.81280966 159.549439,3.91678409 159.243627,3.91678409 C158.901118,3.91678409 158.650356,3.78834509 158.491334,3.53146324 L158.307848,3.23788545 C158.258918,3.15225817 158.179408,3.10944517 158.069316,3.10944517 C157.812434,3.10944517 157.683995,3.28681331 157.683995,3.64155491 C157.683995,3.7271822 157.690111,3.78834362 157.702344,3.82504103 C158.876661,4.24094498 159.46381,5.0727404 159.46381,6.32045224 C159.46381,7.26235236 159.0999,8.02075406 158.372068,8.59568011 C157.644236,9.17060615 156.68706,9.45806486 155.50051,9.45806486 C154.864422,9.45806486 154.209995,9.31739358 153.537209,9.03604679 L153.445466,8.99934957 C153.261979,9.1461392 153.170237,9.30515891 153.170237,9.47641347 C153.170237,9.89231742 153.463811,10.1491954 154.05097,10.2470552 C154.246689,10.2837526 154.693168,10.302101 155.390419,10.302101 L155.592253,10.302101 L156.766564,10.2837524 C157.940882,10.2715199 158.846071,10.4978172 159.482159,10.962651 C160.118247,11.4274849 160.436287,12.0880283 160.436287,12.9443011 C160.436287,14.0329909 159.959228,14.8923089 159.005095,15.5222811 C158.050963,16.1522532 156.75434,16.4672346 155.115189,16.4672346 C153.647293,16.4672346 152.469936,16.1950662 151.583082,15.6507214 C150.696228,15.1063765 150.252807,14.3816136 150.252807,13.4764109 C150.252807,12.4978133 150.870538,11.8189215 152.106017,11.4397149 C151.12742,11.2439954 150.638128,10.6874264 150.638128,9.76999126 C150.638128,9.29292497 150.745161,8.91678219 150.959229,8.64155164 C151.173297,8.36632108 151.555556,8.10638501 152.106017,7.86173563 C151.665648,7.37243687 151.445467,6.83421631 151.445467,6.24705779 C151.445467,5.39078496 151.815494,4.67213818 152.555558,4.0910959 C153.295622,3.51005362 154.209986,3.21953684 155.298676,3.21953684 L155.298676,3.21953684 Z M155.445464,5.14614108 C155.102955,5.14614108 154.818555,5.25928972 154.592254,5.4855904 C154.365953,5.71189108 154.252805,5.99629172 154.252805,6.33880085 C154.252805,6.68130999 154.365953,6.9687687 154.592254,7.20118561 C154.818555,7.43360252 155.102955,7.54980923 155.445464,7.54980923 C155.787974,7.54980923 156.072374,7.43360252 156.298675,7.20118561 C156.524976,6.9687687 156.638124,6.68742613 156.638124,6.35714946 C156.638124,6.01464033 156.524976,5.72718162 156.298675,5.49476471 C156.072374,5.2623478 155.787974,5.14614108 155.445464,5.14614108 L155.445464,5.14614108 Z M155.078492,12.4488886 C154.784913,12.4488886 154.417944,12.424424 153.977575,12.3754941 C153.427114,12.5956786 153.151888,12.8770212 153.151888,13.2195303 C153.151888,13.8678511 153.873593,14.1920067 155.317024,14.1920067 C156.772688,14.1920067 157.500509,13.8678511 157.500509,13.2195303 C157.500509,12.6935341 157.02345,12.43054 156.069317,12.43054 C156.03262,12.43054 155.867484,12.4366561 155.573905,12.4488886 L155.078492,12.4488886 L155.078492,12.4488886 Z M169.794079,7.32962589 C169.794079,7.84338959 169.729859,8.18589359 169.601418,8.35714815 C169.472978,8.52840272 169.219158,8.61402872 168.839951,8.61402872 L164.36289,8.61402872 C164.142705,8.61402872 164.005092,8.63543522 163.950046,8.67824886 C163.895,8.7210625 163.867477,8.828095 163.867477,8.99934957 C163.867477,9.51311327 164.032613,9.94124326 164.36289,10.2837524 C164.693166,10.6262615 165.109064,10.7975135 165.610595,10.7975135 C166.124359,10.7975135 166.650347,10.516171 167.188576,9.95347738 C167.55555,9.56203837 167.959215,9.3663218 168.399584,9.3663218 C168.766558,9.3663218 169.063191,9.47029623 169.289492,9.6782482 C169.515793,9.88620018 169.628941,10.1491943 169.628941,10.4672385 C169.628941,11.1767217 169.240566,11.7791618 168.463805,12.2745768 C167.687043,12.7699918 166.742099,13.0176956 165.628944,13.0176956 C164.17328,13.0176956 163.011213,12.5773333 162.142708,11.6965955 C161.274202,10.8158577 160.839956,9.64155832 160.839956,8.17366203 C160.839956,6.69353328 161.271144,5.49782737 162.133533,4.58650842 C162.995922,3.67518948 164.124351,3.21953684 165.518852,3.21953684 C166.815494,3.21953684 167.85218,3.59262155 168.628942,4.33880216 C169.405704,5.08498277 169.794079,6.08191405 169.794079,7.32962589 L169.794079,7.32962589 Z M163.95922,6.4121953 C163.95922,6.48559011 163.977569,6.54675154 164.014266,6.59568142 C164.050964,6.64461129 164.179403,6.66907587 164.399587,6.66907587 L166.454632,6.66907587 C166.638119,6.66907587 166.751267,6.64766937 166.794081,6.60485572 C166.836894,6.56204208 166.858301,6.4855903 166.858301,6.37549808 C166.858301,6.05745388 166.71763,5.77916938 166.436283,5.54063624 C166.154936,5.30210309 165.824664,5.18283831 165.445458,5.18283831 C164.956159,5.18283831 164.55861,5.37243873 164.252798,5.75164527 C164.057079,5.99629465 163.95922,6.21647579 163.95922,6.4121953 L163.95922,6.4121953 Z"/>
</svg>
