<svg xmlns="http://www.w3.org/2000/svg" width="411" height="41" viewBox="0 0 411 41">
  <g fill="none" fill-rule="evenodd" stroke-linecap="round" stroke-linejoin="round">
    <path fill="#FFFFFF" stroke="#4B4B4B" d="M29.4121731,7.68728273 C29.4121731,7.68728273 10.7884398,7.04410187 5.80332531,14.1394569 C3.37602817,18.2597242 11.4845711,15.5913349 11.4845711,15.5913349 L17.3953921,15.29659 C18.9108173,15.2734542 19.1188474,14.2078902 19.612727,13.7796269 C21.6370751,13.5129043 21.7037215,13.5249378 22.4962184,11.7305185 C24.8556988,11.72816 25.4340225,10.8792108 26.1045447,9.88881356 C28.5272252,9.80372894 29.4121731,7.68728273 29.4121731,7.68728273 Z" transform="rotate(-11 17.381 12.057)"/>
    <g transform="translate(1 8)">
      <path fill="#D8D8D8" stroke="#4A4A4A" d="M1.88626377,8.59647029 C7.83327348,2.65422095 18.8453248,1.24688027 23.0024326,0.871243216 C28.955501,2.04272883 33.3307206,6.26475087 33.3307206,6.26475087 L11.6930741,12.7388642 C11.6930741,12.7388642 4.26082659,10.9316518 1.88626377,8.59647029 Z"/>
      <path fill="#999999" stroke="#4A4A4A" d="M1.66209326,8.7799612 C4.73470053,7.21033493 11.9098876,12.3498115 11.9098876,12.3498115 L11.7346192,29.6395024 C6.40472749,28.2801983 4.3339633,27.2493602 1.74648177,24.731986 C0.323994439,20.9873 0.581054821,15.7045793 1.66209326,8.7799612 Z"/>
      <polygon fill="#4A4A4A" stroke="#2E2E2E" points="6.931 24.332 7.061 12.661 4.82 11.601 4.758 22.998"/>
      <polygon stroke="#4B4B4B" points="9.683 7.727 24.419 2.891 22.313 2.073 6.603 6.767"/>
      <polygon stroke="#4B4B4B" points="13.273 8.848 27.769 4.163 25.603 3.386 10.628 8.064"/>
      <path fill="#CCCCCC" stroke="#4A4A4A" d="M11.6389789,29.7243237 L11.903649,12.1024405 C16.8269248,8.47875914 26.043881,5.72682821 33.451676,6.33034219 L33.4055884,21.8610457 C30.2122406,25.2963071 20.1358199,29.1158609 11.6389789,29.7243237 Z"/>
      <path stroke="#4B4B4B" d="M33.1343423,19.8843014 C29.3442163,23.0746198 20.8203529,26.2389811 11.7912152,27.0067002 C6.15060069,26.1970033 5.3444616,25.3287643 1.50456805,22.6257354"/>
    </g>
    <path stroke="#303030" stroke-width="3" d="M8.41942009,29.345529 L5.10395297,27.7355417"/>
    <path fill="#956637" stroke="#956637" d="M10.7534733,15.187851 L10.7461068,14.4019789 C10.7461068,14.4019789 9.65294401,14.5045304 9.33506216,12.8578421 C9.01718031,11.2111538 10.2507164,10.5743696 12.7167292,10.5710199 C15.182742,10.5676703 15.8286755,10.350311 16.8898448,9.5236172 C17.9510142,8.69692342 19.4513387,7.27017086 21.4863324,7.86932984 C23.5213261,8.46848882 22.0431768,10.7583105 22.0431768,10.7583105 L22.0554466,11.4737999 L10.7534733,15.187851 L10.7534733,15.187851 Z"/>
    <path fill="#CC9966" stroke="#B07942" d="M11.4165453,14.9699524 L11.4138887,14.6865402 C11.4138887,14.6865402 10.3207259,14.7890916 10.002844,13.1424033 C9.6849622,11.495715 10.9184982,10.8589308 13.3845111,10.8555812 C15.8505239,10.8522315 16.4964574,10.6348722 17.5576267,9.80817844 C18.618796,8.98148465 20.1191206,7.55473209 22.1541143,8.15389107 C24.189108,8.75305005 22.7109587,11.0428717 22.7109587,11.0428717 L22.7146338,11.257178 L11.4165453,14.9699524 L11.4165453,14.9699524 Z"/>
    <path fill="#FFFFFF" stroke="#4B4B4B" d="M44.2797429,15.8003308 C44.2797429,15.8003308 25.6560096,15.1571499 20.6708951,22.252505 C18.243598,26.3727723 26.3521409,23.704383 26.3521409,23.704383 L32.2629619,23.4096381 C33.7783871,23.3865023 33.9864172,22.3209383 34.4802968,21.892675 C36.5046449,21.6259523 36.5712913,21.6379859 37.3637882,19.8435666 C39.7232686,19.841208 40.3015923,18.9922589 40.9721145,18.0018616 C43.3947951,17.916777 44.2797429,15.8003308 44.2797429,15.8003308 Z"/>
    <g transform="translate(52)">
      <path fill="#FFFFFF" stroke="#4B4B4B" d="M16.7950995,13.3483835 C20.1149498,12.6561589 23.1784858,13.1733486 23.1784858,13.1733486 C23.1784858,13.1733486 25.3510259,12.0689946 25.6453056,10.6391299 C27.4282631,10.2709045 27.8120503,9.43485814 28.2227813,8.29981111 C30.2173741,7.37436326 30.9078905,5.70559745 30.9078905,5.70559745 C30.9078905,5.70559745 17.093499,5.64772867 15.7227718,6.56930612 C14.3520446,7.49088357 9.61725487,13.3696424 8.45739939,14.983945 C7.86112811,15.6685018 8.32809062,20.1376474 12.706959,17.4903304 C14.4504403,14.8944881 16.7950995,13.3483835 16.7950995,13.3483835 Z"/>
      <g transform="translate(1 8)">
        <path fill="#D8D8D8" stroke="#4A4A4A" d="M1.88626377,8.59647029 C7.83327348,2.65422095 18.8453248,1.24688027 23.0024326,0.871243216 C28.955501,2.04272883 33.3307206,6.26475087 33.3307206,6.26475087 L11.6930741,12.7388642 C11.6930741,12.7388642 4.26082659,10.9316518 1.88626377,8.59647029 Z"/>
        <path fill="#999999" stroke="#4A4A4A" d="M1.66209326,8.7799612 C4.73470053,7.21033493 11.9098876,12.3498115 11.9098876,12.3498115 L11.7346192,29.6395024 C6.40472749,28.2801983 4.3339633,27.2493602 1.74648177,24.731986 C0.323994439,20.9873 0.581054821,15.7045793 1.66209326,8.7799612 Z"/>
        <polygon fill="#4A4A4A" stroke="#2E2E2E" points="6.931 24.332 7.061 12.661 4.82 11.601 4.758 22.998"/>
        <polygon stroke="#4B4B4B" points="9.683 7.727 24.419 2.891 22.313 2.073 6.603 6.767"/>
        <polygon stroke="#4B4B4B" points="13.273 8.848 27.769 4.163 25.603 3.386 10.628 8.064"/>
        <path fill="#CCCCCC" stroke="#4A4A4A" d="M11.6389789,29.7243237 L11.903649,12.1024405 C16.8269248,8.47875914 26.043881,5.72682821 33.451676,6.33034219 L33.4055884,21.8610457 C30.2122406,25.2963071 20.1358199,29.1158609 11.6389789,29.7243237 Z"/>
        <path stroke="#4B4B4B" d="M33.1343423,19.8843014 C29.3442163,23.0746198 20.8203529,26.2389811 11.7912152,27.0067002 C6.15060069,26.1970033 5.3444616,25.3287643 1.50456805,22.6257354"/>
      </g>
      <path stroke="#303030" stroke-width="3" d="M8.50913254,27.1985494 L5.19366542,25.5885621"/>
      <g transform="translate(8.283 4.332)">
        <path fill="#956637" stroke="#956637" d="M2.32526539,10.425568 L2.29920912,7.64583781 C2.29920912,7.64583781 1.20604635,7.74838923 0.888164503,6.10170095 C0.570282653,4.45501268 1.80381871,3.81822846 4.26983154,3.81487881 C6.73584437,3.81152916 7.38177783,3.59416985 8.44294717,2.76747607 C9.5041165,1.94078228 11.004441,0.514029721 13.0394348,1.1131887 C15.0744285,1.71234768 13.5962792,4.00216938 13.5962792,4.00216938 L13.6426543,6.70645107 L2.32526539,10.425568 L2.32526539,10.425568 Z"/>
        <path fill="#CC9966" stroke="#B07942" d="M2.98833739,10.2076695 L2.96699101,7.93039904 C2.96699101,7.93039904 1.87382824,8.03295046 1.55594639,6.38626218 C1.23806454,4.73957391 2.47160059,4.10278969 4.93761343,4.09944004 C7.40362626,4.09609039 8.04955972,3.87873109 9.11072906,3.0520373 C10.1718984,2.22534351 11.6722229,0.798590953 13.7072166,1.39774993 C15.7422103,1.99690891 14.2640611,4.28673061 14.2640611,4.28673061 L14.3018415,6.48982917 L2.98833739,10.2076695 L2.98833739,10.2076695 Z"/>
      </g>
      <path fill="#FFFFFF" stroke="#4B4B4B" d="M28.9334597,19.7179533 C32.2533101,19.0257287 35.316846,19.5429183 35.316846,19.5429183 C35.316846,19.5429183 37.4893861,18.4385644 37.7836659,17.0086996 C39.5666234,16.6404743 39.9504105,15.8044279 40.3611415,14.6693809 C42.3557343,13.743933 43.0462507,12.0751672 43.0462507,12.0751672 C43.0462507,12.0751672 29.2318592,12.0172984 27.861132,12.9388759 C26.4904048,13.8604533 21.7556151,19.7392122 20.5957596,21.3535148 C19.9994883,22.0380715 20.4664508,26.5072172 24.8453192,23.8599001 C26.5888005,21.2640578 28.9334597,19.7179533 28.9334597,19.7179533 Z"/>
    </g>
    <g transform="translate(104)">
      <path fill="#FFFFFF" stroke="#4B4B4B" d="M8.7939002,13.321365 C7.08629396,15.5884727 8.26556349,18.5852729 12.2251675,17.2070378 C13.1910718,16.0800857 15.7587761,15.6441758 15.7587761,15.6441758 L20.3670549,15.2440744 C20.3670549,15.2440744 23.248756,14.4797629 24.4712477,12.7716298 C27.044632,12.1300733 26.9484433,12.1182175 27.8466362,10.6824966 C30.6595391,10.0984777 31.8715685,8.22780813 31.8715685,8.22780813 L18.7797128,8.34518083 C18.7797128,8.34518083 11.9526795,9.93538456 8.7939002,13.321365 Z"/>
      <g transform="translate(1 8)">
        <path fill="#D8D8D8" stroke="#4A4A4A" d="M1.88626377,8.59647029 C7.83327348,2.65422095 18.8453248,1.24688027 23.0024326,0.871243216 C28.955501,2.04272883 33.3307206,6.26475087 33.3307206,6.26475087 L11.6930741,12.7388642 C11.6930741,12.7388642 4.26082659,10.9316518 1.88626377,8.59647029 Z"/>
        <path fill="#999999" stroke="#4A4A4A" d="M1.66209326,8.7799612 C4.73470053,7.21033493 11.9098876,12.3498115 11.9098876,12.3498115 L11.7346192,29.6395024 C6.40472749,28.2801983 4.3339633,27.2493602 1.74648177,24.731986 C0.323994439,20.9873 0.581054821,15.7045793 1.66209326,8.7799612 Z"/>
        <polygon fill="#4A4A4A" stroke="#2E2E2E" points="6.931 24.332 7.061 12.661 4.82 11.601 4.758 22.998"/>
        <polygon stroke="#4B4B4B" points="9.683 7.727 24.419 2.891 22.313 2.073 6.603 6.767"/>
        <polygon stroke="#4B4B4B" points="13.273 8.848 27.769 4.163 25.603 3.386 10.628 8.064"/>
        <path fill="#CCCCCC" stroke="#4A4A4A" d="M11.6389789,29.7243237 L11.903649,12.1024405 C16.8269248,8.47875914 26.043881,5.72682821 33.451676,6.33034219 L33.4055884,21.8610457 C30.2122406,25.2963071 20.1358199,29.1158609 11.6389789,29.7243237 Z"/>
        <path stroke="#4B4B4B" d="M33.1343423,19.8843014 C29.3442163,23.0746198 20.8203529,26.2389811 11.7912152,27.0067002 C6.15060069,26.1970033 5.3444616,25.3287643 1.50456805,22.6257354"/>
      </g>
      <path stroke="#303030" stroke-width="3" d="M8.51500352,24.9657717 L5.1995364,23.3557843"/>
      <g transform="translate(8.551 3.462)">
        <path fill="#956637" stroke="#956637" d="M2.33461027,11.4224971 L2.29920912,7.64583781 C2.29920912,7.64583781 1.20604635,7.74838923 0.888164503,6.10170095 C0.570282653,4.45501268 1.80381871,3.81822846 4.26983154,3.81487881 C6.73584437,3.81152916 7.38177783,3.59416985 8.44294717,2.76747607 C9.5041165,1.94078228 11.004441,0.514029721 13.0394348,1.1131887 C15.0744285,1.71234768 13.5962792,4.00216938 13.5962792,4.00216938 L13.6597069,7.70084724 L2.33461027,11.4224971 L2.33461027,11.4224971 Z"/>
        <path fill="#CC9966" stroke="#B07942" d="M2.99768227,11.2045986 L2.96699101,7.93039904 C2.96699101,7.93039904 1.87382824,8.03295046 1.55594639,6.38626218 C1.23806454,4.73957391 2.47160059,4.10278969 4.93761343,4.09944004 C7.40362626,4.09609039 8.04955972,3.87873109 9.11072906,3.0520373 C10.1718984,2.22534351 11.6722229,0.798590953 13.7072166,1.39774993 C15.7422103,1.99690891 14.2640611,4.28673061 14.2640611,4.28673061 L14.3188941,7.48422533 L2.99768227,11.2045986 L2.99768227,11.2045986 Z"/>
      </g>
      <path fill="#FFFFFF" stroke="#4B4B4B" d="M21.3327314,20.4846865 C19.6251251,22.7517942 20.8043946,25.7485944 24.7639986,24.3703593 C25.7299029,23.2434072 28.2976073,22.8074973 28.2976073,22.8074973 L32.9058861,22.4073959 C32.9058861,22.4073959 35.7875871,21.6430844 37.0100789,19.9349513 C39.5834632,19.2933948 39.4872744,19.281539 40.3854673,17.8458181 C43.1983702,17.2617992 44.4103996,15.3911296 44.4103996,15.3911296 L31.318544,15.5085023 C31.318544,15.5085023 24.4915107,17.0987061 21.3327314,20.4846865 Z"/>
    </g>
    <g transform="translate(156)">
      <g transform="translate(1 8)">
        <path fill="#D8D8D8" stroke="#4A4A4A" d="M1.88626377,8.59647029 C7.83327348,2.65422095 18.8453248,1.24688027 23.0024326,0.871243216 C28.955501,2.04272883 33.3307206,6.26475087 33.3307206,6.26475087 L11.6930741,12.7388642 C11.6930741,12.7388642 4.26082659,10.9316518 1.88626377,8.59647029 Z"/>
        <path fill="#999999" stroke="#4A4A4A" d="M1.66209326,8.7799612 C4.73470053,7.21033493 11.9098876,12.3498115 11.9098876,12.3498115 L11.7346192,29.6395024 C6.40472749,28.2801983 4.3339633,27.2493602 1.74648177,24.731986 C0.323994439,20.9873 0.581054821,15.7045793 1.66209326,8.7799612 Z"/>
        <polygon fill="#4A4A4A" stroke="#2E2E2E" points="6.931 24.332 7.061 12.661 4.82 11.601 4.758 22.998"/>
        <polygon stroke="#4B4B4B" points="9.683 7.727 24.419 2.891 22.313 2.073 6.603 6.767"/>
        <polygon stroke="#4B4B4B" points="13.273 8.848 27.769 4.163 25.603 3.386 10.628 8.064"/>
        <path fill="#CCCCCC" stroke="#4A4A4A" d="M11.6389789,29.7243237 L11.903649,12.1024405 C16.8269248,8.47875914 26.043881,5.72682821 33.451676,6.33034219 L33.4055884,21.8610457 C30.2122406,25.2963071 20.1358199,29.1158609 11.6389789,29.7243237 Z"/>
        <path stroke="#4B4B4B" d="M33.1343423,19.8843014 C29.3442163,23.0746198 20.8203529,26.2389811 11.7912152,27.0067002 C6.15060069,26.1970033 5.3444616,25.3287643 1.50456805,22.6257354"/>
      </g>
      <path stroke="#303030" stroke-width="3" d="M8.382201,23.6118873 L5.06673388,22.0019"/>
      <g transform="translate(8.701 1.528)">
        <path fill="#956637" stroke="#956637" d="M2.35330004,13.4163553 L2.29920912,7.64583781 C2.29920912,7.64583781 1.20604635,7.74838923 0.888164503,6.10170095 C0.570282653,4.45501268 1.80381871,3.81822846 4.26983154,3.81487881 C6.73584437,3.81152916 7.38177783,3.59416985 8.44294717,2.76747607 C9.5041165,1.94078228 11.004441,0.514029721 13.0394348,1.1131887 C15.0744285,1.71234768 13.5962792,4.00216938 13.5962792,4.00216938 L13.6938122,9.68963956 L2.35330004,13.4163553 L2.35330004,13.4163553 Z"/>
        <path fill="#CC9966" stroke="#B07942" d="M3.01637204,13.1984567 L2.96699101,7.93039904 C2.96699101,7.93039904 1.87382824,8.03295046 1.55594639,6.38626218 C1.23806454,4.73957391 2.47160059,4.10278969 4.93761343,4.09944004 C7.40362626,4.09609039 8.04955972,3.87873109 9.11072906,3.0520373 C10.1718984,2.22534351 11.6722229,0.798590953 13.7072166,1.39774993 C15.7422103,1.99690891 14.2640611,4.28673061 14.2640611,4.28673061 L14.3529994,9.47301765 L3.01637204,13.1984567 L3.01637204,13.1984567 Z"/>
      </g>
      <path fill="#FFFFFF" stroke="#4B4B4B" d="M21.0951982,21.774858 C25.413613,19.4731119 25.1094596,19.5056583 30.1326411,17.6253312 C35.6900697,16.8620263 44.7982898,18.519272 44.7982898,18.519272 C44.7982898,18.519272 43.6990477,19.6315817 40.9842011,19.976476 C40.0131727,21.0940367 39.4810011,21.1320075 37.2559299,21.4008926 C36.7817844,22.6337894 34.1171768,22.6000789 34.1171768,22.6000789 L27.2637153,22.903281 C27.2637153,22.903281 26.5399495,23.3077702 25.7378421,24.0733485 C20.7203508,25.8605282 19.7427977,23.2165242 21.0951982,21.774858 Z"/>
    </g>
    <g transform="translate(208)">
      <g transform="translate(1 8)">
        <path fill="#D8D8D8" stroke="#4A4A4A" d="M1.88626377,8.59647029 C7.83327348,2.65422095 18.8453248,1.24688027 23.0024326,0.871243216 C28.955501,2.04272883 33.3307206,6.26475087 33.3307206,6.26475087 L11.6930741,12.7388642 C11.6930741,12.7388642 4.26082659,10.9316518 1.88626377,8.59647029 Z"/>
        <path fill="#999999" stroke="#4A4A4A" d="M1.66209326,8.7799612 C4.73470053,7.21033493 11.9098876,12.3498115 11.9098876,12.3498115 L11.7346192,29.6395024 C6.40472749,28.2801983 4.3339633,27.2493602 1.74648177,24.731986 C0.323994439,20.9873 0.581054821,15.7045793 1.66209326,8.7799612 Z"/>
        <polygon fill="#4A4A4A" stroke="#2E2E2E" points="6.931 24.332 7.061 12.661 4.82 11.601 4.758 22.998"/>
        <polygon stroke="#4B4B4B" points="9.683 7.727 24.419 2.891 22.313 2.073 6.603 6.767"/>
        <polygon stroke="#4B4B4B" points="13.273 8.848 27.769 4.163 25.603 3.386 10.628 8.064"/>
        <path fill="#CCCCCC" stroke="#4A4A4A" d="M11.6389789,29.7243237 L11.903649,12.1024405 C16.8269248,8.47875914 26.043881,5.72682821 33.451676,6.33034219 L33.4055884,21.8610457 C30.2122406,25.2963071 20.1358199,29.1158609 11.6389789,29.7243237 Z"/>
        <path stroke="#4B4B4B" d="M33.1343423,19.8843014 C29.3442163,23.0746198 20.8203529,26.2389811 11.7912152,27.0067002 C6.15060069,26.1970033 5.3444616,25.3287643 1.50456805,22.6257354"/>
      </g>
      <path stroke="#303030" stroke-width="3" d="M8.01047282,25.5967796 L4.6950057,23.9867923"/>
      <path fill="#FFFFFF" stroke="#4B4B4B" d="M20.7159583,22.2991976 C25.0343731,19.9974515 30.8477809,20.204013 30.8477809,20.204013 C36.9858631,19.6478795 42.4214729,20.6011217 42.4214729,20.6011217 C42.4214729,20.6011217 42.2978869,21.9382196 39.5830402,22.2831139 C38.6120119,23.4006747 38.9492067,23.2877786 37.4783413,23.5487422 C37.0041959,24.781639 34.0001854,24.3538332 34.0001854,24.3538332 L26.3361908,23.8468569 C26.3361908,23.8468569 24.9992052,23.0897906 23.709338,23.8115181 C20.8027196,24.773595 20.0096348,23.2528928 20.7159583,22.2991976 Z"/>
      <g transform="translate(8.548 3.343)">
        <path fill="#956637" stroke="#956637" d="M2.33461027,11.4224971 L2.29920912,7.64583781 C2.29920912,7.64583781 1.20604635,7.74838923 0.888164503,6.10170095 C0.570282653,4.45501268 1.80381871,3.81822846 4.26983154,3.81487881 C6.73584437,3.81152916 7.38177783,3.59416985 8.44294717,2.76747607 C9.5041165,1.94078228 11.004441,0.514029721 13.0394348,1.1131887 C15.0744285,1.71234768 13.5962792,4.00216938 13.5962792,4.00216938 L13.6597069,7.70084724 L2.33461027,11.4224971 L2.33461027,11.4224971 Z"/>
        <path fill="#CC9966" stroke="#B07942" d="M2.99768227,11.2045986 L2.96699101,7.93039904 C2.96699101,7.93039904 1.87382824,8.03295046 1.55594639,6.38626218 C1.23806454,4.73957391 2.47160059,4.10278969 4.93761343,4.09944004 C7.40362626,4.09609039 8.04955972,3.87873109 9.11072906,3.0520373 C10.1718984,2.22534351 11.6722229,0.798590953 13.7072166,1.39774993 C15.7422103,1.99690891 14.2640611,4.28673061 14.2640611,4.28673061 L14.3188941,7.48422533 L2.99768227,11.2045986 L2.99768227,11.2045986 Z"/>
      </g>
    </g>
    <g transform="translate(260)">
      <g transform="translate(1 8)">
        <path fill="#D8D8D8" stroke="#4A4A4A" d="M1.88626377,8.59647029 C7.83327348,2.65422095 18.8453248,1.24688027 23.0024326,0.871243216 C28.955501,2.04272883 33.3307206,6.26475087 33.3307206,6.26475087 L11.6930741,12.7388642 C11.6930741,12.7388642 4.26082659,10.9316518 1.88626377,8.59647029 Z"/>
        <path fill="#999999" stroke="#4A4A4A" d="M1.66209326,8.7799612 C4.73470053,7.21033493 11.9098876,12.3498115 11.9098876,12.3498115 L11.7346192,29.6395024 C6.40472749,28.2801983 4.3339633,27.2493602 1.74648177,24.731986 C0.323994439,20.9873 0.581054821,15.7045793 1.66209326,8.7799612 Z"/>
        <polygon fill="#4A4A4A" stroke="#2E2E2E" points="6.931 24.332 7.061 12.661 4.82 11.601 4.758 22.998"/>
        <polygon stroke="#4B4B4B" points="9.683 7.727 24.419 2.891 22.313 2.073 6.603 6.767"/>
        <polygon stroke="#4B4B4B" points="13.273 8.848 27.769 4.163 25.603 3.386 10.628 8.064"/>
        <path fill="#CCCCCC" stroke="#4A4A4A" d="M11.6389789,29.7243237 L11.903649,12.1024405 C16.8269248,8.47875914 26.043881,5.72682821 33.451676,6.33034219 L33.4055884,21.8610457 C30.2122406,25.2963071 20.1358199,29.1158609 11.6389789,29.7243237 Z"/>
        <path stroke="#4B4B4B" d="M33.1343423,19.8843014 C29.3442163,23.0746198 20.8203529,26.2389811 11.7912152,27.0067002 C6.15060069,26.1970033 5.3444616,25.3287643 1.50456805,22.6257354"/>
      </g>
      <path stroke="#303030" stroke-width="3" d="M8.28693994,27.7182214 L4.97147282,26.108234"/>
      <path fill="#FFFFFF" stroke="#4B4B4B" d="M20.8825317,22.2029072 C21.7559914,21.5355967 34.5337729,22.3827456 34.5337729,22.3827456 C35.7455899,22.2729504 41.8120254,23.3678093 41.8120254,23.3678093 C41.8120254,23.3678093 41.9203712,24.9152664 39.2055245,25.2601607 C38.2344962,26.3777215 36.9865214,26.5561585 35.5156561,26.8171221 C35.0415106,28.0500189 31.9180199,27.8649268 31.9180199,27.8649268 L25.9287059,25.4235188 C25.9287059,25.4235188 24.5394394,24.1727453 23.2921355,24.288397 C20.3855171,25.2504739 20.1839953,23.0194084 20.8825317,22.2029072 Z"/>
      <g transform="translate(8.51 4.444)">
        <path fill="#956637" stroke="#956637" d="M2.32526539,10.425568 L2.29920912,7.64583781 C2.29920912,7.64583781 1.20604635,7.74838923 0.888164503,6.10170095 C0.570282653,4.45501268 1.80381871,3.81822846 4.26983154,3.81487881 C6.73584437,3.81152916 7.38177783,3.59416985 8.44294717,2.76747607 C9.5041165,1.94078228 11.004441,0.514029721 13.0394348,1.1131887 C15.0744285,1.71234768 13.5962792,4.00216938 13.5962792,4.00216938 L13.6426543,6.70645107 L2.32526539,10.425568 L2.32526539,10.425568 Z"/>
        <path fill="#CC9966" stroke="#B07942" d="M2.98833739,10.2076695 L2.96699101,7.93039904 C2.96699101,7.93039904 1.87382824,8.03295046 1.55594639,6.38626218 C1.23806454,4.73957391 2.47160059,4.10278969 4.93761343,4.09944004 C7.40362626,4.09609039 8.04955972,3.87873109 9.11072906,3.0520373 C10.1718984,2.22534351 11.6722229,0.798590953 13.7072166,1.39774993 C15.7422103,1.99690891 14.2640611,4.28673061 14.2640611,4.28673061 L14.3018415,6.48982917 L2.98833739,10.2076695 L2.98833739,10.2076695 Z"/>
      </g>
    </g>
    <g transform="translate(312)">
      <g transform="translate(1 8)">
        <path fill="#D8D8D8" stroke="#4A4A4A" d="M1.88626377,8.59647029 C7.83327348,2.65422095 18.8453248,1.24688027 23.0024326,0.871243216 C28.955501,2.04272883 33.3307206,6.26475087 33.3307206,6.26475087 L11.6930741,12.7388642 C11.6930741,12.7388642 4.26082659,10.9316518 1.88626377,8.59647029 Z"/>
        <path fill="#999999" stroke="#4A4A4A" d="M1.66209326,8.7799612 C4.73470053,7.21033493 11.9098876,12.3498115 11.9098876,12.3498115 L11.7346192,29.6395024 C6.40472749,28.2801983 4.3339633,27.2493602 1.74648177,24.731986 C0.323994439,20.9873 0.581054821,15.7045793 1.66209326,8.7799612 Z"/>
        <polygon fill="#4A4A4A" stroke="#2E2E2E" points="6.931 24.332 7.061 12.661 4.82 11.601 4.758 22.998"/>
        <polygon stroke="#4B4B4B" points="9.683 7.727 24.419 2.891 22.313 2.073 6.603 6.767"/>
        <polygon stroke="#4B4B4B" points="13.273 8.848 27.769 4.163 25.603 3.386 10.628 8.064"/>
        <path fill="#CCCCCC" stroke="#4A4A4A" d="M11.6389789,29.7243237 L11.903649,12.1024405 C16.8269248,8.47875914 26.043881,5.72682821 33.451676,6.33034219 L33.4055884,21.8610457 C30.2122406,25.2963071 20.1358199,29.1158609 11.6389789,29.7243237 Z"/>
        <path stroke="#4B4B4B" d="M33.1343423,19.8843014 C29.3442163,23.0746198 20.8203529,26.2389811 11.7912152,27.0067002 C6.15060069,26.1970033 5.3444616,25.3287643 1.50456805,22.6257354"/>
      </g>
      <path stroke="#303030" stroke-width="3" d="M8.95387442,29.6574183 L5.6384073,28.0474309"/>
      <path fill="#FFFFFF" stroke="#4B4B4B" d="M21.3280265,21.1571475 C22.2014862,20.489837 34.9792676,21.3369859 34.9792676,21.3369859 C36.1910847,21.2271907 42.2575201,22.3220495 42.2575201,22.3220495 C42.2575201,22.3220495 42.3658659,23.8695067 39.6510193,24.214401 C38.6799909,25.3319617 37.4320162,25.5103987 35.9611508,25.7713624 C35.4870054,27.0042592 31.8555401,26.3784959 31.8555401,26.3784959 L26.6811623,24.6793935 C26.6811623,24.6793935 25.4433199,23.384264 24.1960159,23.4999157 C21.2893975,24.4619926 20.62949,21.9736487 21.3280265,21.1571475 Z" transform="rotate(-6 31.665 23.72)"/>
      <g transform="translate(8.46 6.49)">
        <path fill="#956637" stroke="#956637" d="M2.30657562,8.43170981 L2.29920912,7.64583781 C2.29920912,7.64583781 1.20604635,7.74838923 0.888164503,6.10170095 C0.570282653,4.45501268 1.80381871,3.81822846 4.26983154,3.81487881 C6.73584437,3.81152916 7.38177783,3.59416985 8.44294717,2.76747607 C9.5041165,1.94078228 11.004441,0.514029721 13.0394348,1.1131887 C15.0744285,1.71234768 13.5962792,4.00216938 13.5962792,4.00216938 L13.6085489,4.71765875 L2.30657562,8.43170981 L2.30657562,8.43170981 Z"/>
        <path fill="#CC9966" stroke="#B07942" d="M2.96964762,8.21381129 L2.96699101,7.93039904 C2.96699101,7.93039904 1.87382824,8.03295046 1.55594639,6.38626218 C1.23806454,4.73957391 2.47160059,4.10278969 4.93761343,4.09944004 C7.40362626,4.09609039 8.04955972,3.87873109 9.11072906,3.0520373 C10.1718984,2.22534351 11.6722229,0.798590953 13.7072166,1.39774993 C15.7422103,1.99690891 14.2640611,4.28673061 14.2640611,4.28673061 L14.2677362,4.50103684 L2.96964762,8.21381129 L2.96964762,8.21381129 Z"/>
      </g>
    </g>
    <g transform="translate(364)">
      <g transform="translate(1 8)">
        <path fill="#D8D8D8" stroke="#4A4A4A" d="M1.88626377,8.59647029 C7.83327348,2.65422095 18.8453248,1.24688027 23.0024326,0.871243216 C28.955501,2.04272883 33.3307206,6.26475087 33.3307206,6.26475087 L11.6930741,12.7388642 C11.6930741,12.7388642 4.26082659,10.9316518 1.88626377,8.59647029 Z"/>
        <path fill="#999999" stroke="#4A4A4A" d="M1.66209326,8.7799612 C4.73470053,7.21033493 11.9098876,12.3498115 11.9098876,12.3498115 L11.7346192,29.6395024 C6.40472749,28.2801983 4.3339633,27.2493602 1.74648177,24.731986 C0.323994439,20.9873 0.581054821,15.7045793 1.66209326,8.7799612 Z"/>
        <polygon fill="#4A4A4A" stroke="#2E2E2E" points="6.931 24.332 7.061 12.661 4.82 11.601 4.758 22.998"/>
        <polygon stroke="#4B4B4B" points="9.683 7.727 24.419 2.891 22.313 2.073 6.603 6.767"/>
        <polygon stroke="#4B4B4B" points="13.273 8.848 27.769 4.163 25.603 3.386 10.628 8.064"/>
        <path fill="#CCCCCC" stroke="#4A4A4A" d="M11.6389789,29.7243237 L11.903649,12.1024405 C16.8269248,8.47875914 26.043881,5.72682821 33.451676,6.33034219 L33.4055884,21.8610457 C30.2122406,25.2963071 20.1358199,29.1158609 11.6389789,29.7243237 Z"/>
        <path stroke="#4B4B4B" d="M33.1343423,19.8843014 C29.3442163,23.0746198 20.8203529,26.2389811 11.7912152,27.0067002 C6.15060069,26.1970033 5.3444616,25.3287643 1.50456805,22.6257354"/>
      </g>
      <path stroke="#303030" stroke-width="3" d="M8.47167931,30.8728026 L5.15621219,29.2628152"/>
      <g transform="translate(8.62 7.318)">
        <path fill="#956637" stroke="#956637" d="M1.36090988,7.19495488 C1.16533627,6.96550523 0.988291335,6.62037693 0.888164503,6.10170095 C0.570282653,4.45501268 1.80381871,3.81822846 4.26983154,3.81487881 C6.73584437,3.81152916 7.38177783,3.59416985 8.44294717,2.76747607 C9.5041165,1.94078228 11.004441,0.514029721 13.0394348,1.1131887 C14.5850229,1.56825303 14.1040614,2.99857288 13.7833305,3.6602221 L2.23175049,7.45629883 L1.36090988,7.19495488 Z"/>
        <path fill="#CC9966" stroke="#B07942" d="M1.94314708,7.36968739 C1.78232932,7.14395409 1.6412338,6.82806711 1.55594639,6.38626218 C1.23806454,4.73957391 2.47160059,4.10278969 4.93761343,4.09944004 C7.40362626,4.09609039 8.04955972,3.87873109 9.11072906,3.0520373 C10.1718984,2.22534351 11.6722229,0.798590953 13.7072166,1.39774993 C14.8855734,1.74469106 14.8859899,2.6585034 14.6775339,3.36636924 L2.23175049,7.45629883 L1.94314708,7.36968739 Z"/>
      </g>
      <path fill="#FFFFFF" stroke="#4B4B4B" d="M20.9609038,22.3066923 C24.8724096,19.2333861 30.5354349,18.8770864 30.5354349,18.8770864 C36.4216462,17.6151989 41.8080375,18.1515825 41.8080375,18.1515825 C41.8080375,18.1515825 41.8489423,19.6937653 39.2573906,20.3650517 C38.4499993,21.7424783 38.7634568,21.5789575 37.3683008,22.0274238 C37.0566836,23.4861396 34.0917779,23.3029652 34.0917779,23.3029652 L26.5978229,23.5042449 C26.5978229,23.5042449 25.2101088,22.7744796 24.0458956,23.7315905 C21.3425591,25.1284569 20.3905367,23.4696804 20.9609038,22.3066923 L20.9609038,22.3066923 Z"/>
    </g>
  </g>
</svg>
